<svg width="167" height="48" viewBox="0 0 167 48" fill="none" xmlns="http://www.w3.org/2000/svg">
<g id="App Store">
<g id="Group">
<path id="Border" d="M160.846 0.961498C163.695 0.961498 166.014 3.222 166.014 6V42C166.014 44.778 163.695 47.0385 160.846 47.0385H7.00004C4.15081 47.0385 1.83234 44.778 1.83234 42V6C1.83234 3.222 4.15081 0.961498 7.00004 0.961498H160.846ZM160.846 0H7.00004C3.61696 0 0.846191 2.7015 0.846191 6V42C0.846191 45.2985 3.61696 48 7.00004 48H160.846C164.229 48 167 45.2985 167 42V6C167 2.7015 164.229 0 160.846 0Z" fill="white" fill-opacity="0.6"/>
<g id="Icon">
<g id="Vector">
<path d="M37.9271 23.7418C37.8914 19.8742 41.1751 17.9926 41.3252 17.905C39.4655 15.2614 36.5831 14.9002 35.5701 14.8714C33.1492 14.623 30.8009 16.2838 29.5677 16.2838C28.3098 16.2838 26.4108 14.8954 24.364 14.9362C21.7301 14.9758 19.2661 16.4626 17.9148 18.7714C15.1258 23.479 17.2058 30.397 19.8778 34.2022C21.2145 36.0658 22.7763 38.1466 24.8206 38.0734C26.8206 37.993 27.5677 36.8302 29.9812 36.8302C32.3726 36.8302 33.0741 38.0734 35.1591 38.0266C37.3055 37.993 38.6569 36.1546 39.9468 34.2742C41.4914 32.1382 42.1117 30.0346 42.1363 29.9266C42.0858 29.9098 37.9677 28.3774 37.9271 23.7418Z" fill="white"/>
<path d="M33.9886 12.3682C35.0643 11.0566 35.8003 9.27223 35.596 7.46143C34.0391 7.52863 32.092 8.51143 30.9708 9.79423C29.9788 10.9246 29.0926 12.7774 29.3215 14.5198C31.0704 14.647 32.8661 13.6594 33.9886 12.3682Z" fill="white"/>
</g>
</g>
<g id="Download on the">
<path id="D" d="M61.2152 12.0104C61.2152 13.4228 60.7808 14.486 59.9131 15.2C59.1094 15.8588 57.9672 16.1888 56.4878 16.1888C55.7543 16.1888 55.1266 16.1576 54.6011 16.0952V8.37804C55.2866 8.27004 56.0251 8.21484 56.8226 8.21484C58.2318 8.21484 59.294 8.51364 60.0103 9.11124C60.8128 9.78684 61.2152 10.7528 61.2152 12.0104ZM59.8552 12.0452C59.8552 11.1296 59.6066 10.4276 59.1094 9.93804C58.6122 9.44964 57.886 9.20484 56.9297 9.20484C56.5235 9.20484 56.1777 9.23124 55.8909 9.28644V15.1532C56.0497 15.1772 56.3402 15.188 56.7623 15.188C57.7494 15.188 58.5112 14.9204 59.0478 14.3852C59.5845 13.85 59.8552 13.07 59.8552 12.0452Z" fill="white"/>
<path id="o" d="M68.4266 13.2445C68.4266 14.1145 68.1718 14.8273 67.6623 15.3865C67.1281 15.9613 66.4205 16.2481 65.5368 16.2481C64.6851 16.2481 64.0069 15.9733 63.5011 15.4213C62.9965 14.8705 62.7441 14.1757 62.7441 13.3381C62.7441 12.4621 63.0038 11.7433 63.5257 11.1853C64.0475 10.6273 64.7491 10.3477 65.6328 10.3477C66.4845 10.3477 67.1688 10.6225 67.6869 11.1733C68.1792 11.7085 68.4266 12.3997 68.4266 13.2445ZM67.0888 13.2853C67.0888 12.7633 66.9731 12.3157 66.7429 11.9425C66.4721 11.4913 66.0869 11.2657 65.586 11.2657C65.0678 11.2657 64.674 11.4913 64.4032 11.9425C64.1718 12.3157 64.0574 12.7705 64.0574 13.3081C64.0574 13.8301 64.1731 14.2777 64.4032 14.6509C64.6826 15.1021 65.0715 15.3277 65.5737 15.3277C66.066 15.3277 66.4525 15.0985 66.7306 14.6389C66.9694 14.2585 67.0888 13.8073 67.0888 13.2853Z" fill="white"/>
<path id="w" d="M78.0956 10.4629L76.2802 16.1197H75.0987L74.3467 13.6633C74.1559 13.0501 74.0008 12.4405 73.8802 11.8357H73.8568C73.7448 12.4573 73.5898 13.0657 73.3904 13.6633L72.5916 16.1197H71.3965L69.6895 10.4629H71.015L71.671 13.1521C71.8298 13.7881 71.9602 14.3941 72.0648 14.9677H72.0882C72.1842 14.4949 72.343 13.8925 72.567 13.1641L73.3904 10.4641H74.4414L75.2304 13.1065C75.4211 13.7509 75.5762 14.3713 75.6956 14.9689H75.7313C75.8187 14.3869 75.9504 13.7665 76.1251 13.1065L76.8291 10.4641H78.0956V10.4629Z" fill="white"/>
<path id="n" d="M84.7818 16.1198H83.492V12.8798C83.492 11.8814 83.103 11.3822 82.3227 11.3822C81.94 11.3822 81.6311 11.519 81.3911 11.7938C81.1535 12.0686 81.0329 12.3926 81.0329 12.7634V16.1186H79.7431V12.0794C79.7431 11.5826 79.7271 11.0438 79.6963 10.4606H80.8298L80.8901 11.345H80.9258C81.076 11.0702 81.3 10.8434 81.5941 10.6622C81.9437 10.451 82.335 10.3442 82.7634 10.3442C83.3049 10.3442 83.7554 10.5146 84.1135 10.8566C84.559 11.2754 84.7818 11.9006 84.7818 12.731V16.1198Z" fill="white"/>
<path id="l" d="M88.3389 16.1196H87.0503V7.86719H88.3389V16.1196Z" fill="white"/>
<path id="o_2" d="M95.933 13.2445C95.933 14.1145 95.6782 14.8273 95.1686 15.3865C94.6345 15.9613 93.9256 16.2481 93.0431 16.2481C92.1902 16.2481 91.512 15.9733 91.0074 15.4213C90.5028 14.8705 90.2505 14.1757 90.2505 13.3381C90.2505 12.4621 90.5102 11.7433 91.032 11.1853C91.5539 10.6273 92.2554 10.3477 93.1379 10.3477C93.9908 10.3477 94.6739 10.6225 95.1933 11.1733C95.6856 11.7085 95.933 12.3997 95.933 13.2445ZM94.5939 13.2853C94.5939 12.7633 94.4782 12.3157 94.248 11.9425C93.9785 11.4913 93.592 11.2657 93.0923 11.2657C92.5729 11.2657 92.1791 11.4913 91.9096 11.9425C91.6782 12.3157 91.5637 12.7705 91.5637 13.3081C91.5637 13.8301 91.6794 14.2777 91.9096 14.6509C92.1889 15.1021 92.5779 15.3277 93.08 15.3277C93.5723 15.3277 93.9576 15.0985 94.2357 14.6389C94.4757 14.2585 94.5939 13.8073 94.5939 13.2853Z" fill="white"/>
<path id="a" d="M102.176 16.1197H101.018L100.922 15.4681H100.886C100.49 15.9877 99.9246 16.2481 99.1911 16.2481C98.6434 16.2481 98.2003 16.0765 97.8668 15.7357C97.564 15.4261 97.4126 15.0409 97.4126 14.5837C97.4126 13.8925 97.708 13.3657 98.3024 13.0009C98.8957 12.6361 99.7301 12.4573 100.805 12.4657V12.3601C100.805 11.6149 100.403 11.2429 99.5997 11.2429C99.0274 11.2429 98.5228 11.3833 98.0871 11.6617L97.8249 10.8361C98.364 10.5109 99.0298 10.3477 99.8151 10.3477C101.331 10.3477 102.092 11.1277 102.092 12.6877V14.7709C102.092 15.3361 102.12 15.7861 102.176 16.1197ZM100.837 14.1757V13.3033C99.4138 13.2793 98.7024 13.6597 98.7024 14.4433C98.7024 14.7385 98.7837 14.9593 98.9498 15.1069C99.116 15.2545 99.3277 15.3277 99.58 15.3277C99.8631 15.3277 100.128 15.2401 100.369 15.0661C100.611 14.8909 100.76 14.6689 100.816 14.3965C100.829 14.3353 100.837 14.2609 100.837 14.1757Z" fill="white"/>
<path id="d" d="M109.505 16.1196H108.36L108.3 15.2112H108.264C107.899 15.9024 107.276 16.248 106.401 16.248C105.702 16.248 105.12 15.9804 104.658 15.4452C104.196 14.91 103.966 14.2152 103.966 13.362C103.966 12.4464 104.216 11.7048 104.718 11.1384C105.204 10.6104 105.8 10.3464 106.509 10.3464C107.288 10.3464 107.833 10.602 108.144 11.1144H108.168V7.86719H109.459V14.5956C109.459 15.1464 109.474 15.654 109.505 16.1196ZM108.168 13.734V12.7908C108.168 12.6276 108.156 12.4956 108.132 12.3948C108.06 12.0924 107.904 11.838 107.666 11.6328C107.426 11.4276 107.137 11.3244 106.803 11.3244C106.322 11.3244 105.945 11.5104 105.668 11.8836C105.394 12.2568 105.255 12.7332 105.255 13.3152C105.255 13.8744 105.387 14.328 105.651 14.6772C105.931 15.0492 106.307 15.2352 106.779 15.2352C107.202 15.2352 107.54 15.0804 107.798 14.7696C108.046 14.4828 108.168 14.1372 108.168 13.734Z" fill="white"/>
<path id="o_3" d="M120.536 13.2445C120.536 14.1145 120.281 14.8273 119.772 15.3865C119.238 15.9613 118.531 16.2481 117.646 16.2481C116.796 16.2481 116.118 15.9733 115.61 15.4213C115.106 14.8705 114.854 14.1757 114.854 13.3381C114.854 12.4621 115.113 11.7433 115.635 11.1853C116.157 10.6273 116.858 10.3477 117.743 10.3477C118.594 10.3477 119.279 10.6225 119.796 11.1733C120.289 11.7085 120.536 12.3997 120.536 13.2445ZM119.199 13.2853C119.199 12.7633 119.084 12.3157 118.854 11.9425C118.582 11.4913 118.198 11.2657 117.695 11.2657C117.178 11.2657 116.785 11.4913 116.513 11.9425C116.281 12.3157 116.167 12.7705 116.167 13.3081C116.167 13.8301 116.282 14.2777 116.513 14.6509C116.792 15.1021 117.181 15.3277 117.683 15.3277C118.175 15.3277 118.563 15.0985 118.841 14.6389C119.079 14.2585 119.199 13.8073 119.199 13.2853Z" fill="white"/>
<path id="n_2" d="M127.472 16.1198H126.183V12.8798C126.183 11.8814 125.794 11.3822 125.012 11.3822C124.63 11.3822 124.321 11.519 124.082 11.7938C123.843 12.0686 123.724 12.3926 123.724 12.7634V16.1186H122.433V12.0794C122.433 11.5826 122.418 11.0438 122.387 10.4606H123.52L123.58 11.345H123.616C123.767 11.0702 123.991 10.8434 124.284 10.6622C124.635 10.451 125.025 10.3442 125.454 10.3442C125.995 10.3442 126.445 10.5146 126.803 10.8566C127.25 11.2754 127.472 11.9006 127.472 12.731V16.1198Z" fill="white"/>
<path id="t" d="M136.152 11.405H134.732V14.153C134.732 14.8514 134.984 15.2006 135.484 15.2006C135.715 15.2006 135.907 15.1814 136.059 15.1418L136.092 16.0958C135.837 16.1894 135.502 16.2362 135.09 16.2362C134.58 16.2362 134.184 16.085 133.897 15.7826C133.609 15.4802 133.467 14.9714 133.467 14.2574V11.405H132.619V10.463H133.467V9.4262L134.731 9.0542V10.4618H136.151V11.405H136.152Z" fill="white"/>
<path id="h" d="M142.98 16.1196H141.689V12.9036C141.689 11.8896 141.3 11.382 140.521 11.382C139.923 11.382 139.514 11.676 139.29 12.264C139.252 12.3876 139.23 12.5388 139.23 12.7164V16.1184H137.941V7.86719H139.23V11.2764H139.255C139.661 10.656 140.243 10.3464 140.997 10.3464C141.532 10.3464 141.973 10.5168 142.324 10.8588C142.761 11.2848 142.98 11.9184 142.98 12.756V16.1196Z" fill="white"/>
<path id="e" d="M150.024 13.0232C150.024 13.2488 150.007 13.4384 149.976 13.5932H146.108C146.125 14.1524 146.309 14.5784 146.668 14.8736C146.995 15.1376 147.417 15.2696 147.934 15.2696C148.506 15.2696 149.028 15.1808 149.498 15.002L149.7 15.8756C149.15 16.1084 148.503 16.2248 147.753 16.2248C146.855 16.2248 146.147 15.9668 145.635 15.4508C145.12 14.9348 144.866 14.2424 144.866 13.3736C144.866 12.5204 145.103 11.81 145.582 11.2436C146.082 10.6388 146.757 10.3364 147.61 10.3364C148.445 10.3364 149.079 10.6388 149.507 11.2436C149.853 11.7236 150.024 12.3176 150.024 13.0232ZM148.793 12.698C148.803 12.3248 148.718 12.0032 148.543 11.732C148.319 11.3828 147.978 11.2076 147.517 11.2076C147.096 11.2076 146.752 11.378 146.49 11.72C146.276 11.9924 146.149 12.3176 146.108 12.698H148.793Z" fill="white"/>
</g>
<g id="App Store_2">
<path id="A" d="M66.8711 37.8041H64.0761L62.545 33.1133H57.2231L55.7647 37.8041H53.0435L58.3161 21.8345H61.5727L66.8711 37.8041ZM62.0835 31.1453L60.6988 26.9753C60.5524 26.5493 60.2779 25.5461 59.873 23.9669H59.8238C59.6625 24.6461 59.4028 25.6493 59.0459 26.9753L57.6859 31.1453H62.0835Z" fill="white"/>
<path id="p" d="M80.4307 31.9046C80.4307 33.863 79.8879 35.411 78.8024 36.5474C77.83 37.559 76.6227 38.0642 75.1814 38.0642C73.6257 38.0642 72.5082 37.5194 71.8276 36.4298H71.7784V42.4958H69.1544V30.0794C69.1544 28.8482 69.1211 27.5846 69.0571 26.2886H71.3648L71.5113 28.1138H71.5605C72.4356 26.7386 73.7636 26.0522 75.5457 26.0522C76.939 26.0522 78.102 26.5886 79.0325 27.6626C79.9654 28.7378 80.4307 30.1514 80.4307 31.9046ZM77.7574 31.9982C77.7574 30.8774 77.499 29.9534 76.9796 29.2262C76.4122 28.4678 75.6504 28.0886 74.6953 28.0886C74.0479 28.0886 73.4596 28.2998 72.934 28.7162C72.4073 29.1362 72.0627 29.6846 71.9014 30.3638C71.8202 30.6806 71.7796 30.9398 71.7796 31.1438V33.0638C71.7796 33.9014 72.043 34.6082 72.5697 35.1854C73.0965 35.7626 73.7808 36.0506 74.6227 36.0506C75.611 36.0506 76.3802 35.6786 76.9304 34.937C77.4817 34.1942 77.7574 33.215 77.7574 31.9982Z" fill="white"/>
<path id="p_2" d="M94.0149 31.9046C94.0149 33.863 93.4721 35.411 92.3853 36.5474C91.4143 37.559 90.2069 38.0642 88.7657 38.0642C87.21 38.0642 86.0924 37.5194 85.413 36.4298H85.3638V42.4958H82.7398V30.0794C82.7398 28.8482 82.7066 27.5846 82.6426 26.2886H84.9503L85.0967 28.1138H85.146C86.0198 26.7386 87.3478 26.0522 89.1312 26.0522C90.5232 26.0522 91.6863 26.5886 92.6192 27.6626C93.5484 28.7378 94.0149 30.1514 94.0149 31.9046ZM91.3417 31.9982C91.3417 30.8774 91.082 29.9534 90.5626 29.2262C89.9952 28.4678 89.2358 28.0886 88.2795 28.0886C87.6309 28.0886 87.0438 28.2998 86.517 28.7162C85.9903 29.1362 85.6469 29.6846 85.4857 30.3638C85.4057 30.6806 85.3638 30.9398 85.3638 31.1438V33.0638C85.3638 33.9014 85.6272 34.6082 86.1515 35.1854C86.6783 35.7614 87.3626 36.0506 88.2069 36.0506C89.1952 36.0506 89.9644 35.6786 90.5146 34.937C91.066 34.1942 91.3417 33.215 91.3417 31.9982Z" fill="white"/>
<path id="S" d="M109.202 33.3253C109.202 34.6837 108.719 35.7889 107.747 36.6421C106.68 37.5745 105.195 38.0401 103.286 38.0401C101.523 38.0401 100.111 37.7089 99.041 37.0453L99.649 34.9129C100.801 35.5921 102.065 35.9329 103.442 35.9329C104.431 35.9329 105.2 35.7145 105.752 35.2801C106.303 34.8457 106.577 34.2625 106.577 33.5353C106.577 32.8873 106.351 32.3413 105.896 31.8985C105.445 31.4557 104.69 31.0441 103.637 30.6637C100.769 29.6209 99.3364 28.0933 99.3364 26.0845C99.3364 24.7717 99.8386 23.6953 100.844 22.8577C101.846 22.0189 103.183 21.6001 104.854 21.6001C106.344 21.6001 107.583 21.8533 108.571 22.3585L107.915 24.4441C106.992 23.9545 105.948 23.7097 104.78 23.7097C103.857 23.7097 103.136 23.9317 102.619 24.3733C102.182 24.7681 101.963 25.2493 101.963 25.8193C101.963 26.4505 102.213 26.9725 102.715 27.3829C103.152 27.7621 103.946 28.1725 105.098 28.6153C106.507 29.1685 107.542 29.8153 108.208 30.5569C108.871 31.2961 109.202 32.2213 109.202 33.3253Z" fill="white"/>
<path id="t_2" d="M117.878 28.2086H114.985V33.7994C114.985 35.2214 115.495 35.9318 116.516 35.9318C116.985 35.9318 117.374 35.8922 117.682 35.813L117.755 37.7558C117.238 37.9442 116.557 38.039 115.714 38.039C114.678 38.039 113.868 37.7306 113.283 37.115C112.701 36.4982 112.408 35.4638 112.408 34.0106V28.2062H110.685V26.2862H112.408V24.1778L114.985 23.4194V26.2862H117.878V28.2086Z" fill="white"/>
<path id="o_4" d="M130.928 31.9517C130.928 33.7217 130.408 35.1749 129.372 36.3113C128.285 37.4813 126.843 38.0645 125.045 38.0645C123.312 38.0645 121.932 37.5041 120.903 36.3833C119.874 35.2625 119.36 33.8477 119.36 32.1425C119.36 30.3581 119.889 28.8965 120.951 27.7601C122.011 26.6225 123.441 26.0537 125.239 26.0537C126.972 26.0537 128.367 26.6141 129.419 27.7361C130.426 28.8245 130.928 30.2297 130.928 31.9517ZM128.205 32.0345C128.205 30.9725 127.973 30.0617 127.501 29.3021C126.951 28.3829 126.165 27.9245 125.146 27.9245C124.091 27.9245 123.29 28.3841 122.74 29.3021C122.268 30.0629 122.036 30.9881 122.036 32.0825C122.036 33.1445 122.268 34.0553 122.74 34.8137C123.307 35.7329 124.1 36.1913 125.122 36.1913C126.124 36.1913 126.911 35.7233 127.478 34.7897C127.962 34.0157 128.205 33.0953 128.205 32.0345Z" fill="white"/>
<path id="r" d="M139.457 28.5386C139.197 28.4918 138.92 28.4678 138.63 28.4678C137.707 28.4678 136.993 28.8074 136.491 29.4878C136.054 30.0878 135.835 30.8462 135.835 31.7618V37.8038H133.212L133.237 29.915C133.237 28.5878 133.203 27.3794 133.138 26.2898H135.424L135.52 28.493H135.592C135.869 27.7358 136.306 27.1262 136.904 26.669C137.489 26.2574 138.12 26.0522 138.801 26.0522C139.043 26.0522 139.263 26.069 139.457 26.099V28.5386Z" fill="white"/>
<path id="e_2" d="M151.192 31.5011C151.192 31.9595 151.162 32.3459 151.096 32.6615H143.224C143.255 33.7991 143.635 34.6691 144.366 35.2691C145.03 35.8055 145.888 36.0743 146.941 36.0743C148.107 36.0743 149.17 35.8931 150.126 35.5295L150.538 37.3055C149.42 37.7807 148.101 38.0171 146.578 38.0171C144.747 38.0171 143.309 37.4915 142.263 36.4415C141.219 35.3915 140.696 33.9815 140.696 32.2127C140.696 30.4763 141.182 29.0303 142.156 27.8771C143.175 26.6459 144.552 26.0303 146.285 26.0303C147.987 26.0303 149.276 26.6459 150.151 27.8771C150.844 28.8551 151.192 30.0647 151.192 31.5011ZM148.69 30.8375C148.707 30.0791 148.536 29.4239 148.181 28.8707C147.726 28.1591 147.029 27.8039 146.09 27.8039C145.232 27.8039 144.534 28.1507 144.001 28.8467C143.564 29.3999 143.304 30.0635 143.224 30.8363H148.69V30.8375Z" fill="white"/>
</g>
</g>
</g>
</svg>
