<svg width="29" height="28" viewBox="0 0 29 28" fill="none" xmlns="http://www.w3.org/2000/svg">
<path d="M26.1674 19.7386V23.2386C26.1687 23.5635 26.1021 23.8851 25.972 24.1828C25.8418 24.4805 25.6509 24.7477 25.4115 24.9674C25.1721 25.187 24.8894 25.3543 24.5816 25.4584C24.2738 25.5625 23.9477 25.6011 23.6241 25.5719C20.0341 25.1818 16.5857 23.9551 13.5559 21.9902C10.737 20.199 8.34714 17.8092 6.55594 14.9903C4.58427 11.9468 3.35726 8.48157 2.97431 4.87545C2.94516 4.55283 2.9835 4.22768 3.0869 3.92069C3.19029 3.6137 3.35647 3.3316 3.57487 3.09236C3.79326 2.85312 4.05907 2.66197 4.35539 2.53108C4.6517 2.4002 4.97202 2.33245 5.29595 2.33214H8.79591C9.3621 2.32657 9.91099 2.52707 10.3403 2.89626C10.7696 3.26545 11.05 3.77815 11.1292 4.33879C11.2769 5.45885 11.5509 6.55861 11.9459 7.61708C12.1028 8.03466 12.1368 8.48847 12.0438 8.92476C11.9507 9.36105 11.7346 9.76152 11.4209 10.0787L9.93923 11.5604C11.6 14.4811 14.0184 16.8995 16.9392 18.5603L18.4208 17.0786C18.738 16.765 19.1385 16.5488 19.5748 16.4558C20.011 16.3627 20.4649 16.3967 20.8824 16.5536C21.9409 16.9486 23.0407 17.2226 24.1607 17.3703C24.7275 17.4503 25.245 17.7357 25.615 18.1724C25.985 18.609 26.1816 19.1665 26.1674 19.7386Z" stroke="#075362" stroke-width="1.82607" stroke-linecap="round" stroke-linejoin="round"/>
</svg>
