<svg width="70" height="28" viewBox="0 0 70 28" fill="none" xmlns="http://www.w3.org/2000/svg">
<circle cx="6" cy="14" r="6" fill="#B5DEBC"/>
<circle cx="6" cy="14" r="4" fill="#2B973D"/>
<path d="M31.6861 14.1818C31.6861 15.4356 31.4512 16.5095 30.9815 17.4034C30.5156 18.2936 29.8793 18.9754 29.0724 19.4489C28.2694 19.9223 27.3584 20.1591 26.3395 20.1591C25.3205 20.1591 24.4077 19.9223 23.6009 19.4489C22.7978 18.9716 22.1615 18.2879 21.6918 17.3977C21.2259 16.5038 20.9929 15.4318 20.9929 14.1818C20.9929 12.928 21.2259 11.8561 21.6918 10.9659C22.1615 10.072 22.7978 9.38826 23.6009 8.91477C24.4077 8.44129 25.3205 8.20455 26.3395 8.20455C27.3584 8.20455 28.2694 8.44129 29.0724 8.91477C29.8793 9.38826 30.5156 10.072 30.9815 10.9659C31.4512 11.8561 31.6861 12.928 31.6861 14.1818ZM29.5668 14.1818C29.5668 13.2992 29.4285 12.5549 29.152 11.9489C28.8793 11.339 28.5005 10.8788 28.0156 10.5682C27.5308 10.2538 26.9721 10.0966 26.3395 10.0966C25.7069 10.0966 25.1482 10.2538 24.6634 10.5682C24.1785 10.8788 23.7978 11.339 23.5213 11.9489C23.2486 12.5549 23.1122 13.2992 23.1122 14.1818C23.1122 15.0644 23.2486 15.8106 23.5213 16.4205C23.7978 17.0265 24.1785 17.4867 24.6634 17.8011C25.1482 18.1117 25.7069 18.267 26.3395 18.267C26.9721 18.267 27.5308 18.1117 28.0156 17.8011C28.5005 17.4867 28.8793 17.0265 29.152 16.4205C29.4285 15.8106 29.5668 15.0644 29.5668 14.1818ZM35.6449 14.8864V20H33.5881V11.2727H35.554V12.7557H35.6562C35.857 12.267 36.1771 11.8788 36.6165 11.5909C37.0597 11.303 37.607 11.1591 38.2585 11.1591C38.8608 11.1591 39.3854 11.2879 39.8324 11.5455C40.2831 11.803 40.6316 12.1761 40.8778 12.6648C41.1278 13.1534 41.2509 13.7462 41.2472 14.4432V20H39.1903V14.7614C39.1903 14.178 39.0388 13.7216 38.7358 13.392C38.4366 13.0625 38.0218 12.8977 37.4915 12.8977C37.1316 12.8977 36.8116 12.9773 36.5312 13.1364C36.2547 13.2917 36.0369 13.517 35.8778 13.8125C35.7225 14.108 35.6449 14.4659 35.6449 14.8864ZM45.3949 8.36364V20H43.3381V8.36364H45.3949ZM47.5099 20V11.2727H49.5668V20H47.5099ZM48.544 10.0341C48.2183 10.0341 47.938 9.92614 47.7031 9.71023C47.4683 9.49053 47.3509 9.22727 47.3509 8.92045C47.3509 8.60985 47.4683 8.34659 47.7031 8.13068C47.938 7.91098 48.2183 7.80114 48.544 7.80114C48.8736 7.80114 49.1539 7.91098 49.3849 8.13068C49.6198 8.34659 49.7372 8.60985 49.7372 8.92045C49.7372 9.22727 49.6198 9.49053 49.3849 9.71023C49.1539 9.92614 48.8736 10.0341 48.544 10.0341ZM53.7386 14.8864V20H51.6818V11.2727H53.6477V12.7557H53.75C53.9508 12.267 54.2708 11.8788 54.7102 11.5909C55.1534 11.303 55.7008 11.1591 56.3523 11.1591C56.9545 11.1591 57.4792 11.2879 57.9261 11.5455C58.3769 11.803 58.7254 12.1761 58.9716 12.6648C59.2216 13.1534 59.3447 13.7462 59.3409 14.4432V20H57.2841V14.7614C57.2841 14.178 57.1326 13.7216 56.8295 13.392C56.5303 13.0625 56.1155 12.8977 55.5852 12.8977C55.2254 12.8977 54.9053 12.9773 54.625 13.1364C54.3485 13.2917 54.1307 13.517 53.9716 13.8125C53.8163 14.108 53.7386 14.4659 53.7386 14.8864ZM65.2955 20.1705C64.4205 20.1705 63.6648 19.9886 63.0284 19.625C62.3958 19.2576 61.9091 18.7386 61.5682 18.0682C61.2273 17.3939 61.0568 16.6004 61.0568 15.6875C61.0568 14.7898 61.2273 14.0019 61.5682 13.3239C61.9129 12.642 62.3939 12.1117 63.0114 11.733C63.6288 11.3504 64.3542 11.1591 65.1875 11.1591C65.7254 11.1591 66.233 11.2462 66.7102 11.4205C67.1913 11.5909 67.6155 11.8561 67.983 12.2159C68.3542 12.5758 68.6458 13.0341 68.858 13.5909C69.0701 14.1439 69.1761 14.803 69.1761 15.5682V16.1989H62.0227V14.8125H67.2045C67.2008 14.4186 67.1155 14.0682 66.9489 13.7614C66.7822 13.4508 66.5492 13.2064 66.25 13.0284C65.9545 12.8504 65.6098 12.7614 65.2159 12.7614C64.7955 12.7614 64.4261 12.8636 64.108 13.0682C63.7898 13.2689 63.5417 13.5341 63.3636 13.8636C63.1894 14.1894 63.1004 14.5473 63.0966 14.9375V16.1477C63.0966 16.6553 63.1894 17.0909 63.375 17.4545C63.5606 17.8144 63.8201 18.0909 64.1534 18.2841C64.4867 18.4735 64.8769 18.5682 65.3239 18.5682C65.6231 18.5682 65.8939 18.5265 66.1364 18.4432C66.3788 18.3561 66.589 18.2292 66.767 18.0625C66.9451 17.8958 67.0795 17.6894 67.1705 17.4432L69.0909 17.6591C68.9697 18.1667 68.7386 18.6098 68.3977 18.9886C68.0606 19.3636 67.6288 19.6553 67.1023 19.8636C66.5758 20.0682 65.9735 20.1705 65.2955 20.1705Z" fill="#2B973D"/>
</svg>
