<svg width="20" height="19" viewBox="0 0 20 19" fill="none" xmlns="http://www.w3.org/2000/svg">
<g clip-path="url(#clip0_5386_10918)">
<path d="M19.1229 9.74504C19.1229 4.70602 15.038 0.621094 9.99894 0.621094C4.95993 0.621094 0.875 4.70602 0.875 9.74504C0.875 14.299 4.21148 18.0737 8.57333 18.7581V12.3824H6.2567V9.74504H8.57333V7.73492C8.57333 5.44823 9.9355 4.18513 12.0196 4.18513C13.0175 4.18513 14.0619 4.36334 14.0619 4.36334V6.60868H12.9115C11.7781 6.60868 11.4246 7.31204 11.4246 8.0343V9.74504H13.955L13.5505 12.3824H11.4246V18.7581C15.7864 18.0737 19.1229 14.299 19.1229 9.74504Z" fill="#075362"/>
</g>
<defs>
<clipPath id="clip0_5386_10918">
<rect width="18.2479" height="18.2479" fill="white" transform="translate(0.875 0.621094)"/>
</clipPath>
</defs>
</svg>
