<svg width="17" height="16" viewBox="0 0 17 16" fill="none" xmlns="http://www.w3.org/2000/svg">
<path fill-rule="evenodd" clip-rule="evenodd" d="M8.4987 1.83398C5.09294 1.83398 2.33203 4.5949 2.33203 8.00065C2.33203 11.4064 5.09294 14.1673 8.4987 14.1673C11.9045 14.1673 14.6654 11.4064 14.6654 8.00065C14.6654 4.5949 11.9045 1.83398 8.4987 1.83398ZM1.33203 8.00065C1.33203 4.04261 4.54066 0.833984 8.4987 0.833984C12.4567 0.833984 15.6654 4.04261 15.6654 8.00065C15.6654 11.9587 12.4567 15.1673 8.4987 15.1673C4.54066 15.1673 1.33203 11.9587 1.33203 8.00065ZM7.9987 5.33398C7.9987 5.05784 8.22256 4.83398 8.4987 4.83398H8.50453C8.78067 4.83398 9.00453 5.05784 9.00453 5.33398C9.00453 5.61013 8.78067 5.83398 8.50453 5.83398H8.4987C8.22256 5.83398 7.9987 5.61013 7.9987 5.33398ZM8.4987 7.50065C8.77484 7.50065 8.9987 7.72451 8.9987 8.00065V10.6673C8.9987 10.9435 8.77484 11.1673 8.4987 11.1673C8.22256 11.1673 7.9987 10.9435 7.9987 10.6673V8.00065C7.9987 7.72451 8.22256 7.50065 8.4987 7.50065Z" fill="#075362"/>
</svg>
