<svg width="20" height="19" viewBox="0 0 20 19" fill="none" xmlns="http://www.w3.org/2000/svg">
<g clip-path="url(#clip0_5386_10927)">
<path d="M9.99894 2.26412C12.4367 2.26412 12.7254 2.27481 13.6842 2.31758C14.5752 2.35678 15.0563 2.50647 15.3771 2.63121C15.8012 2.79516 16.1077 2.99474 16.4249 3.31194C16.7457 3.63271 16.9417 3.93565 17.1056 4.35977C17.2304 4.68054 17.3801 5.16524 17.4193 6.05269C17.462 7.01498 17.4727 7.30367 17.4727 9.73791C17.4727 12.1757 17.462 12.4644 17.4193 13.4231C17.3801 14.3141 17.2304 14.7953 17.1056 15.116C16.9417 15.5402 16.7421 15.8467 16.4249 16.1639C16.1041 16.4846 15.8012 16.6807 15.3771 16.8446C15.0563 16.9693 14.5716 17.119 13.6842 17.1582C12.7219 17.201 12.4332 17.2117 9.99894 17.2117C7.56114 17.2117 7.27245 17.201 6.31373 17.1582C5.42272 17.119 4.94157 16.9693 4.62081 16.8446C4.19669 16.6807 3.89018 16.4811 3.57298 16.1639C3.25221 15.8431 3.05619 15.5402 2.89225 15.116C2.76751 14.7953 2.61782 14.3106 2.57861 13.4231C2.53584 12.4608 2.52515 12.1721 2.52515 9.73791C2.52515 7.3001 2.53584 7.01142 2.57861 6.05269C2.61782 5.16168 2.76751 4.68054 2.89225 4.35977C3.05619 3.93565 3.25578 3.62914 3.57298 3.31194C3.89374 2.99118 4.19669 2.79516 4.62081 2.63121C4.94157 2.50647 5.42628 2.35678 6.31373 2.31758C7.27245 2.27481 7.56114 2.26412 9.99894 2.26412ZM9.99894 0.621094C7.52193 0.621094 7.21186 0.631786 6.23888 0.674554C5.26946 0.717323 4.60299 0.874141 4.02561 1.09868C3.42329 1.3339 2.91363 1.64397 2.40754 2.15363C1.89788 2.65972 1.58781 3.16938 1.35258 3.76814C1.12805 4.34908 0.971229 5.01199 0.928461 5.98141C0.885692 6.95796 0.875 7.26803 0.875 9.74504C0.875 12.222 0.885692 12.5321 0.928461 13.5051C0.971229 14.4745 1.12805 15.141 1.35258 15.7184C1.58781 16.3207 1.89788 16.8303 2.40754 17.3364C2.91363 17.8425 3.42329 18.1562 4.02205 18.3878C4.60299 18.6124 5.2659 18.7692 6.23532 18.812C7.2083 18.8547 7.51837 18.8654 9.99538 18.8654C12.4724 18.8654 12.7825 18.8547 13.7554 18.812C14.7249 18.7692 15.3913 18.6124 15.9687 18.3878C16.5675 18.1562 17.0771 17.8425 17.5832 17.3364C18.0893 16.8303 18.4029 16.3207 18.6346 15.7219C18.8591 15.141 19.016 14.4781 19.0587 13.5087C19.1015 12.5357 19.1122 12.2256 19.1122 9.7486C19.1122 7.27159 19.1015 6.96152 19.0587 5.98854C19.016 5.01912 18.8591 4.35264 18.6346 3.77527C18.4101 3.16938 18.1 2.65972 17.5903 2.15363C17.0843 1.64754 16.5746 1.3339 15.9758 1.10224C15.3949 0.877705 14.732 0.720887 13.7626 0.678118C12.786 0.631786 12.476 0.621094 9.99894 0.621094Z" fill="#075362"/>
<path d="M9.99921 5.05859C7.41172 5.05859 5.3125 7.15781 5.3125 9.74531C5.3125 12.3328 7.41172 14.432 9.99921 14.432C12.5867 14.432 14.6859 12.3328 14.6859 9.74531C14.6859 7.15781 12.5867 5.05859 9.99921 5.05859ZM9.99921 12.7854C8.32055 12.7854 6.95909 11.424 6.95909 9.74531C6.95909 8.06664 8.32055 6.70518 9.99921 6.70518C11.6779 6.70518 13.0393 8.06664 13.0393 9.74531C13.0393 11.424 11.6779 12.7854 9.99921 12.7854Z" fill="#075362"/>
<path d="M15.9657 4.87346C15.9657 5.47935 15.4738 5.96762 14.8715 5.96762C14.2656 5.96762 13.7773 5.47578 13.7773 4.87346C13.7773 4.26757 14.2692 3.7793 14.8715 3.7793C15.4738 3.7793 15.9657 4.27114 15.9657 4.87346Z" fill="#075362"/>
</g>
<defs>
<clipPath id="clip0_5386_10927">
<rect width="18.2479" height="18.2479" fill="white" transform="translate(0.875 0.621094)"/>
</clipPath>
</defs>
</svg>
