<svg width="20" height="19" viewBox="0 0 20 19" fill="none" xmlns="http://www.w3.org/2000/svg">
<g clip-path="url(#clip0_5386_10924)">
<path d="M17.7721 0.621094H2.22221C1.47732 0.621094 0.875 1.20916 0.875 1.93622V17.5503C0.875 18.2773 1.47732 18.869 2.22221 18.869H17.7721C18.517 18.869 19.1229 18.2773 19.1229 17.5538V1.93622C19.1229 1.20916 18.517 0.621094 17.7721 0.621094ZM6.28878 16.171H3.58011V7.46049H6.28878V16.171ZM4.93444 6.27366C4.06482 6.27366 3.3627 5.57155 3.3627 4.70548C3.3627 3.83942 4.06482 3.13731 4.93444 3.13731C5.8005 3.13731 6.50262 3.83942 6.50262 4.70548C6.50262 5.56798 5.8005 6.27366 4.93444 6.27366ZM16.4249 16.171H13.7198V11.9369C13.7198 10.9283 13.702 9.62742 12.312 9.62742C10.9042 9.62742 10.6904 10.7287 10.6904 11.8656V16.171H7.98882V7.46049H10.5834V8.65088H10.6191C10.9791 7.96658 11.8629 7.24308 13.1781 7.24308C15.9188 7.24308 16.4249 9.04648 16.4249 11.3916V16.171Z" fill="#075362"/>
</g>
<defs>
<clipPath id="clip0_5386_10924">
<rect width="18.2479" height="18.2479" fill="white" transform="translate(0.875 0.621094)"/>
</clipPath>
</defs>
</svg>
