<svg width="327" height="24" viewBox="0 0 327 24" fill="none" xmlns="http://www.w3.org/2000/svg">
<line y1="11.5" x2="51.5" y2="11.5" stroke="#BFC0C1"/>
<rect x="64.1" y="0.6" width="198.8" height="22.8" rx="5.4" fill="url(#paint0_linear_8046_24356)"/>
<rect x="64.1" y="0.6" width="198.8" height="22.8" rx="5.4" stroke="url(#paint1_linear_8046_24356)" stroke-width="1.2"/>
<path d="M76.7777 16.0994C76.2474 16.0994 75.7751 16.0083 75.3608 15.826C74.9489 15.6413 74.6233 15.388 74.3842 15.0661C74.1475 14.7417 74.0256 14.3677 74.0185 13.9439H75.5668C75.5762 14.1214 75.6342 14.2777 75.7408 14.4126C75.8497 14.5452 75.9941 14.6482 76.174 14.7216C76.3539 14.795 76.5563 14.8317 76.7812 14.8317C77.0156 14.8317 77.2228 14.7902 77.4027 14.7074C77.5826 14.6245 77.7235 14.5097 77.8253 14.3629C77.9271 14.2161 77.978 14.0469 77.978 13.8551C77.978 13.661 77.9235 13.4893 77.8146 13.3402C77.7081 13.1887 77.5542 13.0703 77.353 12.9851C77.1541 12.8999 76.9174 12.8572 76.6428 12.8572H75.9645V11.728H76.6428C76.8748 11.728 77.0795 11.6877 77.2571 11.6072C77.437 11.5268 77.5767 11.4155 77.6761 11.2734C77.7756 11.129 77.8253 10.9609 77.8253 10.7692C77.8253 10.5869 77.7815 10.4271 77.6939 10.2898C77.6087 10.1501 77.4879 10.0412 77.3317 9.96307C77.1778 9.88494 76.9979 9.84588 76.7919 9.84588C76.5836 9.84588 76.393 9.88376 76.2202 9.95952C76.0473 10.0329 75.9089 10.1383 75.8047 10.2756C75.7005 10.4129 75.6449 10.5739 75.6378 10.7585H74.1641C74.1712 10.3395 74.2907 9.97017 74.5227 9.65057C74.7547 9.33097 75.0672 9.0812 75.4602 8.90128C75.8556 8.71899 76.3018 8.62784 76.799 8.62784C77.3009 8.62784 77.7401 8.71899 78.1165 8.90128C78.4929 9.08357 78.7853 9.32978 78.9936 9.63991C79.2043 9.94768 79.3085 10.2933 79.3061 10.6768C79.3085 11.084 79.1818 11.4238 78.9261 11.696C78.6728 11.9683 78.3426 12.1411 77.9354 12.2145V12.2713C78.4704 12.34 78.8776 12.5258 79.157 12.8288C79.4387 13.1295 79.5784 13.5059 79.576 13.9581C79.5784 14.3724 79.4588 14.7405 79.2173 15.0625C78.9782 15.3845 78.648 15.6378 78.2266 15.8224C77.8052 16.0071 77.3222 16.0994 76.7777 16.0994ZM83.7328 16.1598C83.1221 16.1574 82.5965 16.0071 82.1561 15.7088C81.7182 15.4105 81.3808 14.9785 81.1441 14.4126C80.9097 13.8468 80.7937 13.1662 80.7961 12.3707C80.7961 11.5777 80.9132 10.9018 81.1476 10.343C81.3844 9.78433 81.7217 9.35937 82.1597 9.06818C82.6 8.77462 83.1244 8.62784 83.7328 8.62784C84.3413 8.62784 84.8645 8.77462 85.3025 9.06818C85.7428 9.36174 86.0813 9.78788 86.3181 10.3466C86.5548 10.9029 86.672 11.5777 86.6696 12.3707C86.6696 13.1686 86.5513 13.8504 86.3145 14.4162C86.0801 14.982 85.744 15.4141 85.306 15.7124C84.868 16.0107 84.3436 16.1598 83.7328 16.1598ZM83.7328 14.8849C84.1495 14.8849 84.4821 14.6754 84.7307 14.2564C84.9793 13.8374 85.1024 13.2088 85.1 12.3707C85.1 11.8191 85.0432 11.3598 84.9296 10.9929C84.8183 10.6259 84.6597 10.3501 84.4537 10.1655C84.2501 9.98082 84.0098 9.88849 83.7328 9.88849C83.3185 9.88849 82.9871 10.0956 82.7385 10.5099C82.49 10.9242 82.3645 11.5445 82.3621 12.3707C82.3621 12.9295 82.4177 13.3958 82.529 13.7699C82.6426 14.1416 82.8025 14.4209 83.0084 14.608C83.2144 14.7926 83.4559 14.8849 83.7328 14.8849ZM91.3787 11.7635V12.9638H88.0619V11.7635H91.3787ZM95.4743 16H92.8962V8.72727H95.4956C96.2271 8.72727 96.8569 8.87287 97.3848 9.16406C97.9127 9.45289 98.3188 9.86837 98.6028 10.4105C98.8893 10.9527 99.0325 11.6013 99.0325 12.3565C99.0325 13.1141 98.8893 13.7652 98.6028 14.3097C98.3188 14.8542 97.9104 15.272 97.3777 15.5632C96.8474 15.8544 96.2129 16 95.4743 16ZM94.4338 14.6825H95.4104C95.8649 14.6825 96.2473 14.602 96.5574 14.4411C96.8699 14.2777 97.1043 14.0256 97.2605 13.6847C97.4191 13.3414 97.4984 12.8987 97.4984 12.3565C97.4984 11.8191 97.4191 11.38 97.2605 11.0391C97.1043 10.6982 96.8711 10.4472 96.5609 10.2862C96.2508 10.1252 95.8685 10.0447 95.4139 10.0447H94.4338V14.6825ZM101.215 16H99.5672L102.078 8.72727H104.059L106.567 16H104.919L103.097 10.3892H103.04L101.215 16ZM101.112 13.1413H105.004V14.3416H101.112V13.1413ZM106.474 8.72727H108.196L109.854 11.8594H109.925L111.584 8.72727H113.306L110.653 13.429V16H109.126V13.429L106.474 8.72727ZM116.86 8.72727H118.757L120.759 13.6136H120.845L122.847 8.72727H124.744V16H123.252V11.2663H123.192L121.31 15.9645H120.294L118.412 11.2486H118.352V16H116.86V8.72727ZM132.894 12.3636C132.894 13.1567 132.744 13.8314 132.443 14.3878C132.145 14.9441 131.737 15.3691 131.221 15.6626C130.708 15.9538 130.13 16.0994 129.488 16.0994C128.842 16.0994 128.262 15.9527 127.748 15.6591C127.235 15.3655 126.829 14.9406 126.53 14.3842C126.232 13.8279 126.083 13.1544 126.083 12.3636C126.083 11.5705 126.232 10.8958 126.53 10.3395C126.829 9.78314 127.235 9.35937 127.748 9.06818C128.262 8.77462 128.842 8.62784 129.488 8.62784C130.13 8.62784 130.708 8.77462 131.221 9.06818C131.737 9.35937 132.145 9.78314 132.443 10.3395C132.744 10.8958 132.894 11.5705 132.894 12.3636ZM131.335 12.3636C131.335 11.8499 131.258 11.4167 131.104 11.0639C130.953 10.7112 130.738 10.4437 130.461 10.2614C130.184 10.0791 129.86 9.98793 129.488 9.98793C129.117 9.98793 128.792 10.0791 128.515 10.2614C128.238 10.4437 128.023 10.7112 127.869 11.0639C127.717 11.4167 127.642 11.8499 127.642 12.3636C127.642 12.8774 127.717 13.3106 127.869 13.6634C128.023 14.0161 128.238 14.2836 128.515 14.4659C128.792 14.6482 129.117 14.7393 129.488 14.7393C129.86 14.7393 130.184 14.6482 130.461 14.4659C130.738 14.2836 130.953 14.0161 131.104 13.6634C131.258 13.3106 131.335 12.8774 131.335 12.3636ZM140.316 8.72727V16H138.988L135.824 11.4226H135.771V16H134.233V8.72727H135.582L138.722 13.3011H138.785V8.72727H140.316ZM141.786 16V8.72727H146.687V9.99503H143.324V11.728H146.435V12.9957H143.324V14.7322H146.701V16H141.786ZM147.683 8.72727H149.406L151.064 11.8594H151.135L152.793 8.72727H154.516L151.863 13.429V16H150.336V13.429L147.683 8.72727ZM158.07 16V8.72727H160.982C161.517 8.72727 161.963 8.80658 162.321 8.9652C162.678 9.12382 162.947 9.34399 163.127 9.62571C163.307 9.90507 163.397 10.227 163.397 10.5916C163.397 10.8757 163.34 11.1255 163.226 11.3409C163.113 11.554 162.956 11.7292 162.757 11.8665C162.561 12.0014 162.336 12.0973 162.083 12.1541V12.2251C162.36 12.237 162.619 12.3151 162.86 12.4595C163.104 12.6039 163.302 12.8063 163.454 13.0668C163.605 13.3248 163.681 13.6326 163.681 13.9901C163.681 14.3759 163.585 14.7204 163.393 15.0234C163.204 15.3241 162.923 15.562 162.552 15.7372C162.18 15.9124 161.722 16 161.177 16H158.07ZM159.608 14.7429H160.861C161.29 14.7429 161.602 14.6612 161.799 14.4979C161.995 14.3321 162.093 14.112 162.093 13.8374C162.093 13.6361 162.045 13.4586 161.948 13.3047C161.851 13.1508 161.712 13.0301 161.532 12.9425C161.355 12.8549 161.143 12.8111 160.897 12.8111H159.608V14.7429ZM159.608 11.7706H160.748C160.958 11.7706 161.145 11.7339 161.309 11.6605C161.474 11.5848 161.605 11.4782 161.699 11.3409C161.796 11.2036 161.845 11.0391 161.845 10.8473C161.845 10.5845 161.751 10.3726 161.564 10.2116C161.38 10.0507 161.117 9.97017 160.776 9.97017H159.608V11.7706ZM166.135 16H164.487L166.998 8.72727H168.979L171.486 16H169.839L168.017 10.3892H167.96L166.135 16ZM166.032 13.1413H169.924V14.3416H166.032V13.1413ZM178.637 11.2734H177.081C177.053 11.0722 176.995 10.8935 176.907 10.7372C176.82 10.5786 176.707 10.4437 176.57 10.3324C176.433 10.2211 176.274 10.1359 176.094 10.0767C175.917 10.0175 175.724 9.98793 175.515 9.98793C175.139 9.98793 174.811 10.0814 174.532 10.2685C174.252 10.4531 174.036 10.723 173.882 11.0781C173.728 11.4309 173.651 11.8594 173.651 12.3636C173.651 12.8821 173.728 13.3177 173.882 13.6705C174.038 14.0232 174.256 14.2895 174.535 14.4695C174.815 14.6494 175.138 14.7393 175.505 14.7393C175.711 14.7393 175.901 14.7121 176.077 14.6577C176.254 14.6032 176.412 14.5239 176.549 14.4197C176.686 14.3132 176.8 14.1842 176.89 14.0327C176.982 13.8812 177.046 13.7083 177.081 13.5142L178.637 13.5213C178.597 13.8551 178.496 14.1771 178.335 14.4872C178.176 14.795 177.962 15.0708 177.692 15.3146C177.425 15.5561 177.105 15.7479 176.733 15.8899C176.364 16.0296 175.946 16.0994 175.48 16.0994C174.831 16.0994 174.251 15.9527 173.74 15.6591C173.231 15.3655 172.828 14.9406 172.532 14.3842C172.239 13.8279 172.092 13.1544 172.092 12.3636C172.092 11.5705 172.241 10.8958 172.54 10.3395C172.838 9.78314 173.243 9.35937 173.754 9.06818C174.265 8.77462 174.841 8.62784 175.48 8.62784C175.901 8.62784 176.292 8.68703 176.652 8.8054C177.014 8.92377 177.335 9.09659 177.614 9.32386C177.894 9.54877 178.121 9.82457 178.296 10.1513C178.474 10.478 178.587 10.852 178.637 11.2734ZM179.94 16V8.72727H181.477V11.9339H181.573L184.19 8.72727H186.033L183.334 11.9837L186.065 16H184.226L182.234 13.0099L181.477 13.9332V16H179.94ZM194.371 11.0781C194.321 10.9053 194.251 10.7526 194.161 10.62C194.071 10.4851 193.961 10.3714 193.831 10.2791C193.703 10.1844 193.557 10.1122 193.391 10.0625C193.227 10.0128 193.046 9.98793 192.848 9.98793C192.476 9.98793 192.149 10.0803 191.867 10.2649C191.588 10.4496 191.37 10.7183 191.214 11.071C191.058 11.4214 190.98 11.8499 190.98 12.3565C190.98 12.8632 191.057 13.294 191.21 13.6491C191.364 14.0043 191.582 14.2753 191.864 14.4624C192.146 14.647 192.478 14.7393 192.862 14.7393C193.21 14.7393 193.507 14.6778 193.753 14.5547C194.002 14.4292 194.191 14.2528 194.321 14.0256C194.454 13.7983 194.52 13.5296 194.52 13.2195L194.833 13.2656H192.958V12.108H196.001V13.0241C196.001 13.6634 195.866 14.2126 195.596 14.6719C195.326 15.1288 194.955 15.4815 194.481 15.7301C194.008 15.9763 193.465 16.0994 192.855 16.0994C192.173 16.0994 191.574 15.9491 191.058 15.6484C190.542 15.3454 190.139 14.9157 189.85 14.3594C189.564 13.8007 189.421 13.1378 189.421 12.3707C189.421 11.7812 189.506 11.2557 189.676 10.794C189.849 10.33 190.091 9.93703 190.401 9.61506C190.711 9.29309 191.072 9.04806 191.484 8.87997C191.896 8.71188 192.342 8.62784 192.823 8.62784C193.235 8.62784 193.618 8.68821 193.973 8.80895C194.328 8.92732 194.643 9.09541 194.918 9.31321C195.195 9.53101 195.421 9.79025 195.596 10.0909C195.771 10.3892 195.884 10.7183 195.933 11.0781H194.371ZM201.848 8.72727H203.386V13.4503C203.386 13.9806 203.259 14.4446 203.006 14.8423C202.755 15.2401 202.403 15.5502 201.951 15.7727C201.499 15.9929 200.972 16.103 200.371 16.103C199.767 16.103 199.239 15.9929 198.787 15.7727C198.335 15.5502 197.983 15.2401 197.732 14.8423C197.481 14.4446 197.356 13.9806 197.356 13.4503V8.72727H198.894V13.3189C198.894 13.5959 198.954 13.8421 199.075 14.0575C199.198 14.273 199.371 14.4422 199.593 14.5653C199.816 14.6884 200.075 14.75 200.371 14.75C200.669 14.75 200.928 14.6884 201.149 14.5653C201.371 14.4422 201.543 14.273 201.663 14.0575C201.787 13.8421 201.848 13.5959 201.848 13.3189V8.72727ZM206.104 16H204.457L206.967 8.72727H208.949L211.456 16H209.808L207.987 10.3892H207.93L206.104 16ZM206.001 13.1413H209.893V14.3416H206.001V13.1413ZM212.531 16V8.72727H215.401C215.95 8.72727 216.419 8.82552 216.807 9.02202C217.198 9.21615 217.495 9.49195 217.698 9.84943C217.904 10.2045 218.007 10.6224 218.007 11.103C218.007 11.5859 217.903 12.0014 217.695 12.3494C217.486 12.6951 217.184 12.9602 216.789 13.1449C216.396 13.3295 215.92 13.4219 215.362 13.4219H213.44V12.1861H215.113C215.407 12.1861 215.65 12.1458 215.845 12.0653C216.039 11.9848 216.183 11.8641 216.278 11.7031C216.375 11.5421 216.423 11.3421 216.423 11.103C216.423 10.8615 216.375 10.6579 216.278 10.4922C216.183 10.3265 216.037 10.201 215.841 10.1158C215.647 10.0282 215.402 9.98438 215.106 9.98438H214.069V16H212.531ZM216.459 12.6903L218.266 16H216.569L214.8 12.6903H216.459ZM220.547 16H218.9L221.41 8.72727H223.392L225.899 16H224.251L222.429 10.3892H222.373L220.547 16ZM220.444 13.1413H224.336V14.3416H220.444V13.1413ZM233.057 8.72727V16H231.729L228.565 11.4226H228.512V16H226.974V8.72727H228.324L231.463 13.3011H231.527V8.72727H233.057ZM234.251 9.99503V8.72727H240.224V9.99503H237.997V16H236.477V9.99503H234.251ZM241.407 16V8.72727H246.308V9.99503H242.945V11.728H246.056V12.9957H242.945V14.7322H246.322V16H241.407ZM247.731 16V8.72727H252.631V9.99503H249.268V11.728H252.379V12.9957H249.268V14.7322H252.645V16H247.731Z" fill="#805416"/>
<line x1="275.5" y1="11.5" x2="327" y2="11.5" stroke="#BFC0C1"/>
<defs>
<linearGradient id="paint0_linear_8046_24356" x1="117.263" y1="-13.875" x2="126.202" y2="38.5112" gradientUnits="userSpaceOnUse">
<stop stop-color="#FFF1DA"/>
<stop offset="0.243238" stop-color="#FFF8EE"/>
<stop offset="0.54" stop-color="#FAE39F"/>
<stop offset="1" stop-color="#DBA654"/>
</linearGradient>
<linearGradient id="paint1_linear_8046_24356" x1="88.2423" y1="-33.8571" x2="114.644" y2="42.1321" gradientUnits="userSpaceOnUse">
<stop stop-color="white"/>
<stop offset="0.505" stop-color="#E0C185"/>
<stop offset="1" stop-color="#B5833C"/>
</linearGradient>
</defs>
</svg>
