<svg width="110" height="24" viewBox="0 0 110 24" fill="none" xmlns="http://www.w3.org/2000/svg">
<g id="Logo">
<g id="nemu_logo">
<path fill-rule="evenodd" clip-rule="evenodd" d="M33.799 23.0161C35.5658 23.4811 37.4479 23.446 39.4453 22.9108C40.3756 22.6615 41.3549 22.2671 42.3834 21.7276C43.4392 21.1808 44.4327 20.4014 45.3639 19.3894C46.0991 18.5623 46.7353 17.5389 47.2724 16.3191C47.5159 15.7663 47.269 15.1299 46.7358 14.8461L46.4942 14.7174C45.8784 14.3897 45.1215 14.6559 44.7542 15.2489C44.4669 15.7127 44.149 16.1329 43.8004 16.5092C43.2063 17.1376 42.5792 17.6429 41.9192 18.025C41.2864 18.3998 40.6965 18.6606 40.1493 18.8072C38.7265 19.1884 37.4993 19.1507 36.4679 18.6939C35.4364 18.2371 34.5715 17.4718 33.8732 16.3979C33.3804 15.6039 32.9619 14.703 32.6175 13.6952C32.4044 13.0718 32.7801 12.4139 33.4133 12.2318L44.544 9.03004C45.1709 8.84971 45.5465 8.20242 45.3483 7.58092C44.8835 6.12325 44.2905 4.92643 43.5692 3.99045C42.6974 2.81641 41.7074 1.9673 40.5992 1.44313C39.5184 0.911616 38.3904 0.642004 37.2153 0.634288C36.0329 0.599209 34.8671 0.735629 33.7179 1.04355C31.6658 1.59341 29.9993 2.59714 28.7183 4.05476C27.4573 5.47768 26.6264 7.1373 26.2254 9.03361C25.8244 10.9299 25.8805 12.8357 26.3937 14.751C26.9876 16.9673 27.9285 18.7826 29.2166 20.197C30.4974 21.584 32.0248 22.5237 33.799 23.0161ZM33.1183 9.25411C32.4001 9.44657 31.669 8.94839 31.7049 8.20563C31.7455 7.36413 31.9149 6.6068 32.213 5.93363C32.6624 4.87479 33.489 4.18407 34.6929 3.86149C35.3496 3.68554 35.9645 3.68207 36.5377 3.85107C37.1108 4.02008 37.6258 4.40994 38.0827 5.02066C38.3804 5.38014 38.6504 5.84981 38.8929 6.42966C39.1548 7.05584 38.7612 7.74212 38.1056 7.91779L33.1183 9.25411Z" fill="#075362"/>
<path d="M0.297427 21.4846C0.297427 22.1521 0.838512 22.6932 1.50597 22.6932H10.2212C10.8886 22.6932 11.4297 22.1521 11.4297 21.4846V20.6725C11.4297 20.005 10.8886 19.4705 10.222 19.5031L10.155 19.5064C9.38789 19.5064 8.73055 18.8706 8.77008 18.1045C8.77948 17.9223 8.78791 17.7381 8.79535 17.5519C8.82368 16.8154 8.83784 16.2489 8.83784 15.8523V6.79505C8.83784 6.4483 8.98314 6.11316 9.26282 5.90818C9.6502 5.62425 10.0892 5.36984 10.5799 5.14495C11.2881 4.83336 11.9962 4.67756 12.7044 4.67756C13.9508 4.67756 14.8289 5.13078 15.3388 6.03723C15.877 6.91535 16.1461 8.27502 16.1461 10.1162L16.1885 16.1498C16.1885 16.8862 16.1319 17.5519 16.0186 18.1468C15.9336 18.7133 15.707 19.1524 15.3388 19.464C15.2045 19.5871 15.0348 19.6859 14.8297 19.7603C14.2024 19.9882 13.6392 20.4724 13.6392 21.1399V21.4846C13.6392 22.1521 14.1803 22.6932 14.8477 22.6932H23.5629C24.2304 22.6932 24.7715 22.1521 24.7715 21.4846V20.6725C24.7715 20.005 24.2304 19.4704 23.5638 19.5052L23.5393 19.5064L23.4903 19.5065C22.7245 19.509 22.0719 18.8759 22.1115 18.1111C22.121 17.9267 22.1296 17.7403 22.1371 17.5519C22.1654 16.8154 22.1796 16.2489 22.1796 15.8523V10.1587C22.1796 6.87286 21.6272 4.49344 20.5225 3.02047C19.4461 1.51917 17.6049 0.768515 14.9988 0.768515C14.4323 0.768515 13.7808 0.881821 13.0443 1.10843C12.3078 1.30672 11.5713 1.58998 10.8349 1.95822C10.3572 2.1787 9.91523 2.423 9.50904 2.69114C9.21096 2.88791 8.78631 2.71651 8.71556 2.36641C8.71015 2.33967 8.71021 2.32803 8.71033 2.30506L8.71037 2.29305V1.83076C8.71037 1.36337 8.28038 1.02345 7.81299 1.02345H6.99048C6.70198 1.02345 6.4239 1.13119 6.16776 1.26394C5.97532 1.36369 5.73229 1.46765 5.43867 1.57582C4.9288 1.7741 4.22064 1.94406 3.31419 2.08569C2.70254 2.18126 2.00061 2.24459 1.2084 2.27567C0.54145 2.30184 0 2.83923 0 3.50669V4.20395C0 4.91462 0.611578 5.4856 1.32224 5.48488L1.35967 5.48486C1.42988 5.48167 1.49901 5.47848 1.56706 5.47529C2.30716 5.44058 2.91285 6.06561 2.87184 6.80538C2.86253 6.97327 2.85419 7.14211 2.84681 7.31192C2.81848 7.9351 2.80432 8.50163 2.80432 9.0115V16.1498C2.80432 16.8862 2.74766 17.5519 2.63436 18.1468C2.54938 18.7133 2.33693 19.1524 1.99701 19.464C1.86271 19.5871 1.69303 19.6859 1.48798 19.7603C0.860611 19.9882 0.297427 20.4724 0.297427 21.1399V21.4846Z" fill="#075362"/>
<path d="M48.4734 21.4846C48.4734 22.1521 49.0145 22.6932 49.6819 22.6932H58.1847C58.8521 22.6932 59.3932 22.1521 59.3932 21.4846V20.6121C59.3932 19.978 58.879 19.4692 58.246 19.5064C57.5225 19.5064 56.903 18.9117 56.9416 18.1893C56.9528 17.9794 56.9627 17.767 56.9713 17.5519C56.9996 16.8154 57.0138 16.2489 57.0138 15.8523V6.79506C57.0138 6.44831 57.1596 6.11417 57.435 5.90346C57.8036 5.62144 58.2014 5.3686 58.6284 5.14495C59.2516 4.83336 59.9172 4.67756 60.6254 4.67756C61.5885 4.70589 62.3391 5.05997 62.8774 5.7398C63.4156 6.41964 63.6847 7.68016 63.6847 9.52138L63.7271 16.1498C63.7271 16.8862 63.6847 17.5519 63.5997 18.1468C63.5147 18.7133 63.3022 19.1524 62.9623 19.464C62.8568 19.5695 62.7269 19.6572 62.5725 19.727C61.9644 20.002 61.3902 20.4724 61.3902 21.1399V21.4846C61.3902 22.1521 61.9313 22.6932 62.5988 22.6932H71.144C71.8115 22.6932 72.3525 22.1521 72.3525 21.4846V20.6725C72.3525 20.005 71.8114 19.4687 71.1448 19.503L71.0779 19.5064C70.3107 19.5064 69.6534 18.8706 69.6929 18.1045C69.7023 17.9223 69.7107 17.7381 69.7182 17.5519C69.7465 16.8154 69.7607 16.2489 69.7607 15.8523V10.1587C69.7607 9.39391 69.7323 8.67159 69.6757 7.99175C69.6437 7.60729 69.598 7.24094 69.5388 6.89271C69.4586 6.42094 69.6179 5.9258 70.0225 5.67025C70.3541 5.4608 70.7059 5.27154 71.0779 5.10246C71.7294 4.81919 72.4234 4.69172 73.1598 4.72005C74.1229 4.74838 74.8878 5.11662 75.4543 5.82478C76.0491 6.53294 76.3607 7.80763 76.3891 9.64885V16.1498C76.3891 16.8862 76.3466 17.5519 76.2616 18.1468C76.1766 18.7133 75.9783 19.1524 75.6667 19.464C75.5978 19.5398 75.518 19.6064 75.4272 19.6638C74.8631 20.0205 74.2646 20.4724 74.2646 21.1399V21.4846C74.2646 22.1521 74.8057 22.6932 75.4731 22.6932H83.8059C84.4734 22.6932 85.0144 22.1521 85.0144 21.4846V20.6725C85.0144 20.005 84.4734 19.4705 83.8067 19.5031L83.7398 19.5064C82.9726 19.5064 82.3153 18.8706 82.3548 18.1045C82.3642 17.9223 82.3726 17.7381 82.3801 17.5519C82.4084 16.8154 82.4226 16.2489 82.4226 15.8523V9.60636C82.4226 6.34882 81.8277 4.06854 80.638 2.76553C79.4766 1.43419 77.7487 0.768515 75.4543 0.768515C74.3212 0.768515 73.1315 1.02345 71.8852 1.53333C71.1203 1.85348 70.3946 2.24064 69.708 2.69481C69.0727 3.115 68.1963 2.93363 67.6685 2.38451C67.3205 2.02254 66.9274 1.72465 66.489 1.49084C65.6392 1.00929 64.5628 0.768515 63.2598 0.768515C62.2683 0.768515 61.2061 0.980963 60.073 1.40586C59.2947 1.70523 58.5515 2.08194 57.8434 2.53599C57.4516 2.78724 56.9173 2.55011 56.8863 2.08569C56.8863 2.05993 56.8862 2.03442 56.886 2.00917C56.8812 1.4331 56.3867 1.02345 55.8106 1.02345H55.1664C54.8779 1.02345 54.5998 1.13119 54.3437 1.26394C54.1513 1.36369 53.9082 1.46765 53.6146 1.57582C53.1047 1.7741 52.3966 1.94406 51.4901 2.08569C50.8785 2.18126 50.1766 2.24459 49.3843 2.27567C48.7174 2.30184 48.1759 2.83923 48.1759 3.50669V4.20395C48.1759 4.91462 48.7875 5.4856 49.4982 5.48488L49.5356 5.48486C49.6058 5.48167 49.6749 5.47848 49.743 5.47529C50.4831 5.44058 51.0888 6.06561 51.0478 6.80538C51.0385 6.97327 51.0301 7.14211 51.0227 7.31192C50.9944 7.9351 50.9803 8.50163 50.9803 9.0115V16.1498C50.9803 16.8862 50.9236 17.5519 50.8103 18.1468C50.7253 18.7133 50.5129 19.1524 50.173 19.464C50.0387 19.5871 49.869 19.6859 49.6639 19.7603C49.0365 19.9882 48.4734 20.4724 48.4734 21.1399V21.4846Z" fill="#075362"/>
<path d="M95.2986 23.373C93.599 23.373 92.2252 23.0472 91.1771 22.3957C90.1573 21.7442 89.4067 20.7245 88.9252 19.3365C88.4719 17.9485 88.2453 16.1639 88.2453 13.9828V9.09648C88.2453 8.58661 88.2595 8.00592 88.2878 7.35441C88.2964 7.14868 88.3049 6.94555 88.3135 6.74501C88.3442 6.02672 87.7465 5.43832 87.0283 5.47233C86.9401 5.47651 86.8501 5.48069 86.7582 5.48486L86.7208 5.48488C86.0101 5.4856 85.3985 4.91462 85.3985 4.20395V2.72303C85.3985 2.48837 85.5887 2.29814 85.8234 2.29814C87.5796 2.29814 88.9676 2.15651 89.9874 1.87325C90.6651 1.68498 91.1802 1.49671 91.5327 1.30845C91.8154 1.15742 92.122 1.02345 92.4425 1.02345H93.0703C93.7378 1.02345 94.2788 1.56454 94.2788 2.232V14.0253C94.2788 15.8665 94.5196 17.2403 95.0012 18.1468C95.4827 19.0249 96.2475 19.464 97.2956 19.464C98.0321 19.464 98.7686 19.2657 99.5051 18.8691C100.11 18.5333 100.625 18.1621 101.053 17.7555C101.268 17.5506 101.375 17.2601 101.375 16.9627V9.09648C101.375 8.58661 101.389 8.00592 101.417 7.35441C101.425 7.16933 101.434 6.98634 101.443 6.80546C101.484 6.06564 100.877 5.44058 100.137 5.47529L99.93 5.48486L99.8925 5.48488C99.1819 5.4856 98.5703 4.91462 98.5703 4.20395V3.3179C98.5703 2.7547 99.0269 2.29814 99.59 2.29814C100.921 2.29814 102.097 2.15651 103.117 1.87325C103.809 1.66163 104.332 1.46307 104.685 1.27758C104.949 1.13866 105.236 1.02345 105.535 1.02345H106.2C106.867 1.02345 107.408 1.56454 107.408 2.232V15.8523C107.408 16.2489 107.394 16.8154 107.366 17.5519C107.358 17.7381 107.35 17.9223 107.34 18.1045C107.301 18.8706 107.958 19.5064 108.725 19.5064L108.792 19.5031C109.459 19.4705 110 20.005 110 20.6725V21.4846C110 22.1521 109.459 22.6932 108.791 22.6932H103.039C102.412 22.6932 101.895 22.2088 101.8 21.5884C101.762 21.1017 101.191 20.8819 100.8 21.1743C100.174 21.6422 99.5161 22.0777 98.8252 22.4807C97.8338 23.0756 96.6583 23.373 95.2986 23.373Z" fill="#075362"/>
</g>
</g>
</svg>
