<svg width="110" height="23" viewBox="0 0 110 23" fill="none" xmlns="http://www.w3.org/2000/svg">
<g id="Logo">
<g id="nemu_logo">
<path fill-rule="evenodd" clip-rule="evenodd" d="M33.799 22.3872C35.5658 22.8522 37.4479 22.8171 39.4453 22.2819C40.3756 22.0326 41.3549 21.6382 42.3834 21.0987C43.4392 20.5519 44.4327 19.7725 45.3639 18.7605C46.0991 17.9334 46.7353 16.91 47.2724 15.6902C47.5159 15.1374 47.269 14.501 46.7358 14.2172L46.4942 14.0885C45.8784 13.7608 45.1215 14.027 44.7542 14.62C44.4669 15.0838 44.149 15.504 43.8004 15.8803C43.2063 16.5087 42.5792 17.014 41.9192 17.3961C41.2864 17.7709 40.6965 18.0317 40.1493 18.1783C38.7265 18.5595 37.4993 18.5218 36.4679 18.065C35.4364 17.6082 34.5715 16.8429 33.8732 15.769C33.3804 14.975 32.9619 14.0741 32.6175 13.0663C32.4044 12.4429 32.7801 11.785 33.4133 11.6029L44.544 8.40113C45.1709 8.2208 45.5465 7.57351 45.3483 6.95201C44.8835 5.49434 44.2905 4.29752 43.5692 3.36155C42.6974 2.18751 41.7074 1.3384 40.5992 0.814219C39.5184 0.28271 38.3904 0.0130973 37.2153 0.00538128C36.0329 -0.0296974 34.8671 0.106723 33.7179 0.414643C31.6658 0.964499 29.9993 1.96824 28.7183 3.42585C27.4573 4.84878 26.6264 6.5084 26.2254 8.4047C25.8244 10.301 25.8805 12.2068 26.3937 14.1221C26.9876 16.3384 27.9285 18.1537 29.2166 19.5681C30.4974 20.9551 32.0248 21.8948 33.799 22.3872ZM33.1183 8.6252C32.4001 8.81767 31.669 8.31949 31.7049 7.57672C31.7455 6.73522 31.9149 5.97789 32.213 5.30473C32.6624 4.24588 33.489 3.55517 34.6929 3.23259C35.3496 3.05663 35.9645 3.05316 36.5377 3.22217C37.1108 3.39117 37.6258 3.78104 38.0827 4.39175C38.3804 4.75124 38.6504 5.2209 38.8929 5.80075C39.1548 6.42694 38.7612 7.11321 38.1056 7.28888L33.1183 8.6252Z" fill="white"/>
<path d="M0.297427 20.8557C0.297427 21.5232 0.838512 22.0643 1.50597 22.0643H10.2212C10.8886 22.0643 11.4297 21.5232 11.4297 20.8557V20.0436C11.4297 19.3761 10.8886 18.8416 10.222 18.8742L10.155 18.8775C9.38789 18.8775 8.73055 18.2417 8.77008 17.4756C8.77948 17.2934 8.78791 17.1092 8.79535 16.923C8.82368 16.1865 8.83784 15.62 8.83784 15.2234V6.16614C8.83784 5.81939 8.98314 5.48425 9.26282 5.27927C9.6502 4.99535 10.0892 4.74094 10.5799 4.51604C11.2881 4.20445 11.9962 4.04865 12.7044 4.04865C13.9508 4.04865 14.8289 4.50188 15.3388 5.40832C15.877 6.28644 16.1461 7.64611 16.1461 9.48733L16.1885 15.5209C16.1885 16.2573 16.1319 16.923 16.0186 17.5179C15.9336 18.0844 15.707 18.5235 15.3388 18.835C15.2045 18.9582 15.0348 19.0569 14.8297 19.1314C14.2024 19.3593 13.6392 19.8435 13.6392 20.511V20.8557C13.6392 21.5232 14.1803 22.0643 14.8477 22.0643H23.5629C24.2304 22.0643 24.7715 21.5232 24.7715 20.8557V20.0436C24.7715 19.3761 24.2304 18.8415 23.5638 18.8762L23.5393 18.8775L23.4903 18.8776C22.7245 18.8801 22.0719 18.247 22.1115 17.4822C22.121 17.2978 22.1296 17.1114 22.1371 16.923C22.1654 16.1865 22.1796 15.62 22.1796 15.2234V9.52982C22.1796 6.24395 21.6272 3.86453 20.5225 2.39156C19.4461 0.890259 17.6049 0.139609 14.9988 0.139609C14.4323 0.139609 13.7808 0.252915 13.0443 0.479526C12.3078 0.67781 11.5713 0.961074 10.8349 1.32932C10.3572 1.54979 9.91523 1.79409 9.50904 2.06223C9.21096 2.25901 8.78631 2.0876 8.71556 1.7375C8.71015 1.71076 8.71021 1.69913 8.71033 1.67616L8.71037 1.66415V1.20185C8.71037 0.734465 8.28038 0.394546 7.81299 0.394546H6.99048C6.70198 0.394546 6.4239 0.502285 6.16776 0.635038C5.97532 0.734781 5.73229 0.838739 5.43867 0.946913C4.9288 1.1452 4.22064 1.31516 3.31419 1.45679C2.70254 1.55236 2.00061 1.61568 1.2084 1.64677C0.54145 1.67293 0 2.21032 0 2.87778V3.57505C0 4.28571 0.611578 4.8567 1.32224 4.85598L1.35967 4.85596C1.42988 4.85277 1.49901 4.84958 1.56706 4.84638C2.30716 4.81168 2.91285 5.4367 2.87184 6.17648C2.86253 6.34436 2.85419 6.51321 2.84681 6.68301C2.81848 7.30619 2.80432 7.87272 2.80432 8.3826V15.5209C2.80432 16.2573 2.74766 16.923 2.63436 17.5179C2.54938 18.0844 2.33693 18.5235 1.99701 18.835C1.86271 18.9582 1.69303 19.0569 1.48798 19.1314C0.860611 19.3593 0.297427 19.8435 0.297427 20.511V20.8557Z" fill="white"/>
<path d="M48.4734 20.8557C48.4734 21.5232 49.0145 22.0643 49.6819 22.0643H58.1847C58.8521 22.0643 59.3932 21.5232 59.3932 20.8557V19.9832C59.3932 19.3491 58.879 18.8403 58.246 18.8775C57.5225 18.8775 56.903 18.2828 56.9416 17.5604C56.9528 17.3505 56.9627 17.1381 56.9713 16.923C56.9996 16.1865 57.0138 15.62 57.0138 15.2234V6.16615C57.0138 5.8194 57.1596 5.48527 57.435 5.27456C57.8036 4.99253 58.2014 4.73969 58.6284 4.51604C59.2516 4.20445 59.9172 4.04865 60.6254 4.04865C61.5885 4.07698 62.3391 4.43106 62.8774 5.1109C63.4156 5.79073 63.6847 7.05126 63.6847 8.89247L63.7271 15.5209C63.7271 16.2573 63.6847 16.923 63.5997 17.5179C63.5147 18.0844 63.3022 18.5235 62.9623 18.835C62.8568 18.9406 62.7269 19.0283 62.5725 19.0981C61.9644 19.3731 61.3902 19.8435 61.3902 20.511V20.8557C61.3902 21.5232 61.9313 22.0643 62.5988 22.0643H71.144C71.8115 22.0643 72.3525 21.5232 72.3525 20.8557V20.0436C72.3525 19.3761 71.8114 18.8398 71.1448 18.8741L71.0779 18.8775C70.3107 18.8775 69.6534 18.2417 69.6929 17.4756C69.7023 17.2934 69.7107 17.1092 69.7182 16.923C69.7465 16.1865 69.7607 15.62 69.7607 15.2234V9.52982C69.7607 8.765 69.7323 8.04268 69.6757 7.36285C69.6437 6.97838 69.598 6.61204 69.5388 6.26381C69.4586 5.79203 69.6179 5.2969 70.0225 5.04134C70.3541 4.83189 70.7059 4.64263 71.0779 4.47355C71.7294 4.19029 72.4234 4.06282 73.1598 4.09115C74.1229 4.11947 74.8878 4.48772 75.4543 5.19588C76.0491 5.90404 76.3607 7.17872 76.3891 9.01994V15.5209C76.3891 16.2573 76.3466 16.923 76.2616 17.5179C76.1766 18.0844 75.9783 18.5235 75.6667 18.835C75.5978 18.9109 75.518 18.9775 75.4272 19.0349C74.8631 19.3916 74.2646 19.8435 74.2646 20.511V20.8557C74.2646 21.5232 74.8057 22.0643 75.4731 22.0643H83.8059C84.4734 22.0643 85.0144 21.5232 85.0144 20.8557V20.0436C85.0144 19.3761 84.4734 18.8416 83.8067 18.8742L83.7398 18.8775C82.9726 18.8775 82.3153 18.2417 82.3548 17.4756C82.3642 17.2934 82.3726 17.1092 82.3801 16.923C82.4084 16.1865 82.4226 15.62 82.4226 15.2234V8.97745C82.4226 5.71991 81.8277 3.43964 80.638 2.13662C79.4766 0.80528 77.7487 0.139609 75.4543 0.139609C74.3212 0.139609 73.1315 0.394546 71.8852 0.904422C71.1203 1.22457 70.3946 1.61173 69.708 2.0659C69.0727 2.4861 68.1963 2.30472 67.6685 1.7556C67.3205 1.39363 66.9274 1.09574 66.489 0.861933C65.6392 0.380384 64.5628 0.139609 63.2598 0.139609C62.2683 0.139609 61.2061 0.352057 60.073 0.776953C59.2947 1.07632 58.5515 1.45303 57.8434 1.90708C57.4516 2.15833 56.9173 1.9212 56.8863 1.45679C56.8863 1.43102 56.8862 1.40551 56.886 1.38027C56.8812 0.804193 56.3867 0.394546 55.8106 0.394546H55.1664C54.8779 0.394546 54.5998 0.502286 54.3437 0.635039C54.1513 0.734782 53.9082 0.83874 53.6146 0.946913C53.1047 1.1452 52.3966 1.31516 51.4901 1.45679C50.8785 1.55236 50.1766 1.61568 49.3843 1.64676C48.7174 1.67293 48.1759 2.21032 48.1759 2.87778V3.57505C48.1759 4.28571 48.7875 4.8567 49.4982 4.85598L49.5356 4.85596C49.6058 4.85277 49.6749 4.84958 49.743 4.84638C50.4831 4.81168 51.0888 5.4367 51.0478 6.17648C51.0385 6.34436 51.0301 6.51321 51.0227 6.68301C50.9944 7.30619 50.9803 7.87272 50.9803 8.3826V15.5209C50.9803 16.2573 50.9236 16.923 50.8103 17.5179C50.7253 18.0844 50.5129 18.5235 50.173 18.835C50.0387 18.9582 49.869 19.0569 49.6639 19.1314C49.0365 19.3593 48.4734 19.8435 48.4734 20.511V20.8557Z" fill="white"/>
<path d="M95.2986 22.7441C93.599 22.7441 92.2252 22.4183 91.1771 21.7668C90.1573 21.1153 89.4067 20.0956 88.9252 18.7076C88.4719 17.3196 88.2453 15.535 88.2453 13.3539V8.46758C88.2453 7.9577 88.2595 7.37701 88.2878 6.7255C88.2964 6.51977 88.3049 6.31664 88.3135 6.1161C88.3442 5.39781 87.7465 4.80941 87.0283 4.84342C86.9401 4.8476 86.8501 4.85178 86.7582 4.85596L86.7208 4.85598C86.0101 4.8567 85.3985 4.28571 85.3985 3.57505V2.09412C85.3985 1.85946 85.5887 1.66924 85.8234 1.66924C87.5796 1.66924 88.9676 1.5276 89.9874 1.24434C90.6651 1.05607 91.1802 0.867808 91.5327 0.679541C91.8154 0.528514 92.122 0.394546 92.4425 0.394546H93.0703C93.7378 0.394546 94.2788 0.93563 94.2788 1.60309V13.3964C94.2788 15.2376 94.5196 16.6114 95.0012 17.5179C95.4827 18.396 96.2475 18.835 97.2956 18.835C98.0321 18.835 98.7686 18.6368 99.5051 18.2402C100.11 17.9044 100.625 17.5332 101.053 17.1266C101.268 16.9217 101.375 16.6311 101.375 16.3338V8.46758C101.375 7.9577 101.389 7.37701 101.417 6.7255C101.425 6.54042 101.434 6.35744 101.443 6.17655C101.484 5.43673 100.877 4.81168 100.137 4.84638L99.93 4.85596L99.8925 4.85598C99.1819 4.8567 98.5703 4.28571 98.5703 3.57505V2.68899C98.5703 2.1258 99.0269 1.66924 99.59 1.66924C100.921 1.66924 102.097 1.5276 103.117 1.24434C103.809 1.03272 104.332 0.834166 104.685 0.648678C104.949 0.509758 105.236 0.394546 105.535 0.394546H106.2C106.867 0.394546 107.408 0.93563 107.408 1.60309V15.2234C107.408 15.62 107.394 16.1865 107.366 16.923C107.358 17.1092 107.35 17.2934 107.34 17.4756C107.301 18.2417 107.958 18.8775 108.725 18.8775L108.792 18.8742C109.459 18.8416 110 19.3761 110 20.0436V20.8557C110 21.5232 109.459 22.0643 108.791 22.0643H103.039C102.412 22.0643 101.895 21.5799 101.8 20.9595C101.762 20.4728 101.191 20.253 100.8 20.5454C100.174 21.0133 99.5161 21.4488 98.8252 21.8518C97.8338 22.4467 96.6583 22.7441 95.2986 22.7441Z" fill="white"/>
</g>
</g>
</svg>
