<svg width="167" height="48" viewBox="0 0 167 48" fill="none" xmlns="http://www.w3.org/2000/svg">
<g id="Group">
<path id="Border" d="M160.698 0.960623C163.545 0.960623 165.861 3.21903 165.861 5.99446V41.9611C165.861 44.7365 163.545 46.995 160.698 46.995H6.99434C4.14775 46.995 1.83143 44.7365 1.83143 41.9611V5.99446C1.83143 3.21903 4.14775 0.960623 6.99434 0.960623H160.698ZM160.698 1.52588e-05H6.99434C3.6144 1.52588e-05 0.846191 2.69901 0.846191 5.99446V41.9611C0.846191 45.2566 3.6144 47.9556 6.99434 47.9556H160.698C164.078 47.9556 166.846 45.2566 166.846 41.9611V5.99446C166.846 2.69901 164.078 1.52588e-05 160.698 1.52588e-05Z" fill="white" fill-opacity="0.6"/>
<g id="Icon">
<path id="Vector" d="M13.6772 9.0367C13.316 9.40536 13.1069 9.97933 13.1069 10.7226V37.2361C13.1069 37.9794 13.316 38.5533 13.6772 38.922L13.7663 39.0029L29.0045 24.1517V23.801L13.7663 8.94978L13.6772 9.0367Z" fill="url(#paint0_linear_3984_8941)"/>
<path id="Vector_2" d="M34.0782 29.1045L29.0044 24.1516V23.8009L34.0843 18.848L34.198 18.9124L40.214 22.2498C41.9309 23.197 41.9309 24.7555 40.214 25.7086L34.198 29.0401L34.0782 29.1045Z" fill="url(#paint1_linear_3984_8941)"/>
<path id="Vector_3" d="M34.1982 29.0405L29.0046 23.9767L13.6772 38.9223C14.2475 39.5068 15.1774 39.5772 16.2349 38.9927L34.1982 29.0405Z" fill="url(#paint2_linear_3984_8941)"/>
<path id="Vector_4" d="M34.1982 18.9128L16.2349 8.96048C15.1774 8.38202 14.2475 8.45245 13.6772 9.03691L29.0046 23.9766L34.1982 18.9128Z" fill="url(#paint3_linear_3984_8941)"/>
</g>
<g id="GET IT ON">
<path id="G" d="M59.1525 12.2817C59.1525 13.2828 58.8451 14.0845 58.2395 14.6825C57.5432 15.3913 56.6364 15.748 55.5251 15.748C54.463 15.748 53.5562 15.3853 52.8122 14.6705C52.0668 13.9452 51.6948 13.055 51.6948 11.9895C51.6948 10.924 52.0668 10.0338 52.8122 9.31445C53.5562 8.59362 54.463 8.23096 55.5251 8.23096C56.0539 8.23096 56.558 8.33736 57.0391 8.53518C57.5187 8.73449 57.9091 9.00424 58.1919 9.33693L57.5494 9.96935C57.056 9.40137 56.3843 9.12113 55.5251 9.12113C54.7505 9.12113 54.0788 9.38489 53.5085 9.91689C52.9444 10.4504 52.6616 11.1413 52.6616 11.9895C52.6616 12.8377 52.9444 13.5345 53.5085 14.068C54.0788 14.5941 54.7505 14.8638 55.5251 14.8638C56.3474 14.8638 57.0391 14.5941 57.5848 14.0621C57.9444 13.7099 58.1488 13.2243 58.2026 12.6039H55.5251V11.7377H59.0972C59.1402 11.925 59.1525 12.1064 59.1525 12.2817Z" fill="white" stroke="black" stroke-width="0.0491852" stroke-miterlimit="10"/>
<path id="E" d="M64.8194 9.27868H61.464V11.5566H64.4889V12.4228H61.464V14.7006H64.8194V15.5833H60.5142V8.396H64.8194V9.27868Z" fill="white" stroke="black" stroke-width="0.0491852" stroke-miterlimit="10"/>
<path id="T" d="M68.819 15.5833H67.8691V9.27868H65.811V8.396H70.8786V9.27868H68.819V15.5833Z" fill="white" stroke="black" stroke-width="0.0491852" stroke-miterlimit="10"/>
<path id="I" d="M74.5459 15.5833V8.396H75.4943V15.5833H74.5459Z" fill="white" stroke="black" stroke-width="0.0491852" stroke-miterlimit="10"/>
<path id="T_2" d="M79.6979 15.5833H78.7557V9.27868H76.6899V8.396H81.7637V9.27868H79.6979V15.5833Z" fill="white" stroke="black" stroke-width="0.0491852" stroke-miterlimit="10"/>
<path id="O" d="M91.3579 14.6585C90.6309 15.3853 89.7302 15.748 88.6558 15.748C87.5752 15.748 86.6745 15.3853 85.9475 14.6585C85.222 13.9332 84.8608 13.043 84.8608 11.9895C84.8608 10.9359 85.222 10.0458 85.9475 9.32045C86.6745 8.59362 87.5752 8.23096 88.6558 8.23096C89.724 8.23096 90.6247 8.59362 91.3518 9.32644C92.0834 10.0578 92.4446 10.9419 92.4446 11.9895C92.4446 13.043 92.0834 13.9332 91.3579 14.6585ZM86.65 14.0561C87.1971 14.5941 87.8627 14.8638 88.6558 14.8638C89.4427 14.8638 90.1144 14.5941 90.6555 14.0561C91.2011 13.5181 91.4778 12.8272 91.4778 11.9895C91.4778 11.1517 91.2011 10.4609 90.6555 9.92289C90.1144 9.38489 89.4427 9.11514 88.6558 9.11514C87.8627 9.11514 87.1971 9.38489 86.65 9.92289C86.1043 10.4609 85.8276 11.1517 85.8276 11.9895C85.8276 12.8272 86.1043 13.5181 86.65 14.0561Z" fill="white" stroke="black" stroke-width="0.0491852" stroke-miterlimit="10"/>
<path id="N" d="M93.7773 15.5833V8.396H94.9301L98.5145 13.9858H98.556L98.5145 12.6041V8.396H99.4628V15.5833H98.473L94.7195 9.71777H94.678L94.7195 11.1055V15.5833H93.7773Z" fill="white" stroke="black" stroke-width="0.0491852" stroke-miterlimit="10"/>
</g>
<g id="Google Play">
<path id="Google Play_2" d="M84.6269 26.0792C81.7388 26.0792 79.3794 28.2222 79.3794 31.1789C79.3794 34.1117 81.7388 36.2772 84.6269 36.2772C87.5211 36.2772 89.8805 34.1117 89.8805 31.1789C89.8805 28.2222 87.5211 26.0792 84.6269 26.0792ZM84.6269 34.2691C83.0422 34.2691 81.6788 32.9938 81.6788 31.1789C81.6788 29.3401 83.0422 28.0873 84.6269 28.0873C86.2115 28.0873 87.581 29.3401 87.581 31.1789C87.581 32.9938 86.2115 34.2691 84.6269 34.2691ZM73.1775 26.0792C70.2832 26.0792 67.93 28.2222 67.93 31.1789C67.93 34.1117 70.2832 36.2772 73.1775 36.2772C76.0702 36.2772 78.4249 34.1117 78.4249 31.1789C78.4249 28.2222 76.0702 26.0792 73.1775 26.0792ZM73.1775 34.2691C71.5912 34.2691 70.2233 32.9938 70.2233 31.1789C70.2233 29.3401 71.5912 28.0873 73.1775 28.0873C74.7622 28.0873 76.1255 29.3401 76.1255 31.1789C76.1255 32.9938 74.7622 34.2691 73.1775 34.2691ZM59.5532 27.6422V29.8092H64.8606C64.7053 31.0201 64.2903 31.9103 63.654 32.5307C62.8793 33.28 61.6728 34.1117 59.5532 34.1117C56.287 34.1117 53.7294 31.5416 53.7294 28.3571C53.7294 25.1725 56.287 22.6024 59.5532 22.6024C61.3192 22.6024 62.6042 23.2753 63.5526 24.1475L65.1188 22.6204C63.7923 21.3855 62.0278 20.4369 59.5532 20.4369C55.0743 20.4369 51.3101 23.9901 51.3101 28.3571C51.3101 32.724 55.0743 36.2772 59.5532 36.2772C61.974 36.2772 63.7923 35.5039 65.2218 34.0533C66.6866 32.6251 67.1431 30.617 67.1431 28.9955C67.1431 28.4919 67.1 28.0289 67.0232 27.6422H59.5532ZM115.265 29.3222C114.833 28.1817 113.5 26.0792 110.786 26.0792C108.096 26.0792 105.856 28.1458 105.856 31.1789C105.856 34.0353 108.073 36.2772 111.044 36.2772C113.446 36.2772 114.833 34.849 115.403 34.0173L113.62 32.8589C113.025 33.7071 112.215 34.2691 111.044 34.2691C109.88 34.2691 109.046 33.7491 108.511 32.724L115.506 29.9021L115.265 29.3222ZM108.133 31.0201C108.073 29.0539 109.699 28.0468 110.864 28.0468C111.777 28.0468 112.552 28.4919 112.81 29.1288L108.133 31.0201ZM102.447 35.967H104.747V20.9809H102.447V35.967ZM98.6815 27.2151H98.6047C98.0882 26.6187 97.103 26.0792 95.8549 26.0792C93.2358 26.0792 90.8411 28.3211 90.8411 31.1954C90.8411 34.0533 93.2358 36.2772 95.8549 36.2772C97.103 36.2772 98.0882 35.7332 98.6047 35.1188H98.6815V35.8501C98.6815 37.7998 97.6133 38.8473 95.8903 38.8473C94.4854 38.8473 93.6139 37.8582 93.2542 37.0265L91.2546 37.8403C91.831 39.192 93.3572 40.8555 95.8903 40.8555C98.5862 40.8555 100.861 39.3089 100.861 35.5459V26.3894H98.6815V27.2151ZM96.0517 34.2691C94.467 34.2691 93.1405 32.9758 93.1405 31.1954C93.1405 29.3986 94.467 28.0873 96.0517 28.0873C97.6133 28.0873 98.8445 29.3986 98.8445 31.1954C98.8445 32.9758 97.6133 34.2691 96.0517 34.2691ZM126.03 20.9809H120.53V35.967H122.824V30.2888H126.03C128.577 30.2888 131.075 28.4919 131.075 25.6341C131.075 22.7777 128.571 20.9809 126.03 20.9809ZM126.09 28.2042H122.824V23.0655H126.09C127.802 23.0655 128.78 24.4517 128.78 25.6341C128.78 26.794 127.802 28.2042 126.09 28.2042ZM140.266 26.0507C138.609 26.0507 136.886 26.764 136.178 28.3451L138.213 29.1768C138.651 28.3451 139.456 28.0753 140.308 28.0753C141.497 28.0753 142.704 28.7722 142.722 30.0025V30.1599C142.307 29.9261 141.419 29.5799 140.326 29.5799C138.134 29.5799 135.901 30.7563 135.901 32.9518C135.901 34.9599 137.696 36.2532 139.714 36.2532C141.257 36.2532 142.109 35.5744 142.644 34.7846H142.722V35.943H144.937V30.1944C144.937 27.5373 142.902 26.0507 140.266 26.0507ZM139.989 34.2631C139.239 34.2631 138.194 33.9004 138.194 32.9938C138.194 31.8338 139.498 31.3887 140.626 31.3887C141.636 31.3887 142.109 31.606 142.722 31.8923C142.542 33.28 141.317 34.2631 139.989 34.2631ZM153.007 26.3789L150.371 32.8754H150.292L147.567 26.3789H145.094L149.189 35.4575L146.852 40.5093H149.248L155.558 26.3789H153.007ZM132.335 35.967H134.634V20.9809H132.335V35.967Z" fill="white"/>
</g>
</g>
<defs>
<linearGradient id="paint0_linear_3984_8941" x1="27.6515" y1="37.5122" x2="7.53775" y2="16.8827" gradientUnits="userSpaceOnUse">
<stop stop-color="#00A0FF"/>
<stop offset="0.0066" stop-color="#00A1FF"/>
<stop offset="0.2601" stop-color="#00BEFF"/>
<stop offset="0.5122" stop-color="#00D2FF"/>
<stop offset="0.7604" stop-color="#00DFFF"/>
<stop offset="1" stop-color="#00E3FF"/>
</linearGradient>
<linearGradient id="paint1_linear_3984_8941" x1="42.4497" y1="23.9746" x2="12.6964" y2="23.9746" gradientUnits="userSpaceOnUse">
<stop stop-color="#FFE000"/>
<stop offset="0.4087" stop-color="#FFBD00"/>
<stop offset="0.7754" stop-color="#FFA500"/>
<stop offset="1" stop-color="#FF9C00"/>
</linearGradient>
<linearGradient id="paint2_linear_3984_8941" x1="31.3741" y1="21.2239" x2="4.09814" y2="-6.75141" gradientUnits="userSpaceOnUse">
<stop stop-color="#FF3A44"/>
<stop offset="1" stop-color="#C31162"/>
</linearGradient>
<linearGradient id="paint3_linear_3984_8941" x1="9.81904" y1="47.7431" x2="21.999" y2="35.251" gradientUnits="userSpaceOnUse">
<stop stop-color="#32A071"/>
<stop offset="0.0685" stop-color="#2DA771"/>
<stop offset="0.4762" stop-color="#15CF74"/>
<stop offset="0.8009" stop-color="#06E775"/>
<stop offset="1" stop-color="#00F076"/>
</linearGradient>
</defs>
</svg>
