<svg width="80" height="80" viewBox="0 0 80 80" fill="none" xmlns="http://www.w3.org/2000/svg">
<g opacity="0.7">
<g style="mix-blend-mode:luminosity">
<path d="M0 40C0 17.9086 17.9086 0 40 0C62.0914 0 80 17.9086 80 40C80 62.0914 62.0914 80 40 80C17.9086 80 0 62.0914 0 40Z" fill="#D9D9D9"/>
</g>
<g opacity="0.2" clip-path="url(#clip0_2770_11813)">
<path d="M40 40C44.42 40 48 36.42 48 32C48 27.58 44.42 24 40 24C35.58 24 32 27.58 32 32C32 36.42 35.58 40 40 40ZM40 44C34.66 44 24 46.68 24 52V54C24 55.1 24.9 56 26 56H54C55.1 56 56 55.1 56 54V52C56 46.68 45.34 44 40 44Z" fill="black"/>
</g>
</g>
<defs>
<clipPath id="clip0_2770_11813">
<rect width="48" height="48" fill="white" transform="translate(16 16)"/>
</clipPath>
</defs>
</svg>
