<svg width="48" height="48" viewBox="0 0 48 48" fill="none" xmlns="http://www.w3.org/2000/svg">
<path d="M0.5 24C0.5 11.0213 11.0213 0.5 24 0.5C36.9787 0.5 47.5 11.0213 47.5 24C47.5 36.9787 36.9787 47.5 24 47.5C11.0213 47.5 0.5 36.9787 0.5 24Z" stroke="#075362"/>
<path d="M10.3008 31.6509V30.4084C10.7077 30.4084 11.0346 30.2922 11.2817 30.0597C11.5287 29.8272 11.7322 29.522 11.892 29.1442C12.0519 28.7518 12.219 28.3158 12.3934 27.8363L16.7312 16H17.9083L22.6384 28.0543C22.7256 28.3013 22.8419 28.6501 22.9872 29.1006C23.1325 29.5511 23.2124 29.9434 23.227 30.2776C23.474 30.2631 23.7138 30.2486 23.9463 30.2341C24.1788 30.2195 24.3822 30.2123 24.5566 30.2123V31.6509H18.9982V30.452C19.4486 30.452 19.7538 30.3576 19.9137 30.1687C20.0735 29.9797 20.1389 29.7327 20.1099 29.4275C20.0953 29.1224 20.0227 28.8099 19.8919 28.4902L19.3469 27.008L14.2898 27.0952L13.8102 28.5556C13.7231 28.8027 13.6213 29.086 13.5051 29.4057C13.3888 29.7109 13.2726 29.987 13.1563 30.2341C13.4179 30.2195 13.7013 30.205 14.0064 30.1905C14.3261 30.1759 14.5804 30.1687 14.7694 30.1687V31.6509H10.3008ZM14.7694 25.7001H18.8674L17.6903 22.4958C17.5159 22.0017 17.3488 21.5076 17.1889 21.0135C17.0436 20.5049 16.9201 20.0399 16.8184 19.6185H16.7748C16.6876 19.9091 16.5786 20.2869 16.4478 20.752C16.3315 21.217 16.1644 21.7474 15.9464 22.3432L14.7694 25.7001Z" fill="#075362"/>
<path d="M31.9257 31.6509C31.8821 31.4329 31.853 31.2513 31.8385 31.106C31.8385 30.9461 31.8312 30.7645 31.8167 30.561C31.3226 31.0551 30.7922 31.4184 30.2255 31.6509C29.6732 31.8834 29.0992 31.9997 28.5034 31.9997C27.5152 31.9997 26.7523 31.7308 26.2146 31.1932C25.6915 30.6555 25.4299 29.9943 25.4299 29.2095C25.4299 28.512 25.6188 27.9235 25.9967 27.4439C26.3745 26.9498 26.8686 26.5502 27.4789 26.245C28.0893 25.9253 28.765 25.6856 29.5061 25.5257C30.2473 25.3513 30.9811 25.2569 31.7077 25.2423V24.0434C31.7077 23.622 31.6569 23.2369 31.5551 22.8881C31.4679 22.5248 31.3008 22.2415 31.0538 22.038C30.8067 21.82 30.4434 21.7111 29.9639 21.7111C29.6442 21.7256 29.3172 21.7983 28.983 21.929C28.6633 22.0453 28.409 22.2342 28.22 22.4958C28.3363 22.6266 28.409 22.7719 28.438 22.9317C28.4671 23.0771 28.4816 23.2079 28.4816 23.3241C28.4816 23.5857 28.3799 23.8618 28.1765 24.1524C27.973 24.4285 27.646 24.5593 27.1955 24.5448C26.8032 24.5303 26.498 24.3922 26.28 24.1306C26.0766 23.8691 25.9749 23.5566 25.9749 23.1933C25.9749 22.6411 26.171 22.1616 26.5634 21.7547C26.9703 21.3332 27.5152 21.0063 28.1982 20.7737C28.8813 20.5267 29.6442 20.4032 30.487 20.4032C31.7368 20.4032 32.6959 20.7302 33.3644 21.3841C34.0328 22.038 34.3598 23.0843 34.3453 24.523C34.3453 25.0316 34.3453 25.4966 34.3453 25.9181C34.3453 26.325 34.338 26.7391 34.3235 27.1605C34.3235 27.5674 34.3235 28.0252 34.3235 28.5338C34.3235 28.7518 34.3162 29.0279 34.3017 29.3621C34.2871 29.6818 34.2653 30.0015 34.2363 30.3212C34.4979 30.2922 34.7594 30.2776 35.021 30.2776C35.2971 30.2631 35.5224 30.2486 35.6967 30.2341V31.6509H31.9257ZM31.6859 26.5284C31.25 26.5575 30.8213 26.6301 30.3998 26.7464C29.9784 26.8481 29.6006 26.9934 29.2663 27.1823C28.9321 27.3713 28.6633 27.611 28.4598 27.9017C28.2709 28.1778 28.1837 28.4975 28.1982 28.8608C28.2128 29.3113 28.3581 29.6455 28.6342 29.8635C28.9103 30.0669 29.23 30.1687 29.5933 30.1687C30.0147 30.1687 30.3926 30.0815 30.7268 29.9071C31.0756 29.7327 31.3953 29.5002 31.6859 29.2095C31.6859 29.0642 31.6859 28.9116 31.6859 28.7518C31.6859 28.5919 31.6859 28.4321 31.6859 28.2722C31.6859 28.0688 31.6859 27.8145 31.6859 27.5093C31.6859 27.2041 31.6859 26.8772 31.6859 26.5284Z" fill="#075362"/>
</svg>
